<svg width="761" height="316" viewBox="0 0 761 316" fill="none" xmlns="http://www.w3.org/2000/svg">
<path d="M69.5 297H18" stroke="#CCCCCC" stroke-width="4" stroke-linecap="round" stroke-linejoin="round" stroke-dasharray="1 10"/>
<path d="M124 299H744M18.5 239C18.5 239 13 239 62 239C111 239 69.5 299 109 299" stroke="#404040" stroke-width="4"/>
<path d="M742.8 313.6C751.526 313.6 758.6 306.526 758.6 297.8C758.6 289.074 751.526 282 742.8 282C734.074 282 727 289.074 727 297.8C727 306.526 734.074 313.6 742.8 313.6Z" fill="#B18BE8" stroke="#404040" stroke-width="4" stroke-miterlimit="10"/>
<path d="M501.8 313.6C510.526 313.6 517.6 306.526 517.6 297.8C517.6 289.074 510.526 282 501.8 282C493.074 282 486 289.074 486 297.8C486 306.526 493.074 313.6 501.8 313.6Z" fill="#B18BE8" stroke="#404040" stroke-width="4" stroke-miterlimit="10"/>
<path d="M320.8 313.6C329.526 313.6 336.6 306.526 336.6 297.8C336.6 289.074 329.526 282 320.8 282C312.074 282 305 289.074 305 297.8C305 306.526 312.074 313.6 320.8 313.6Z" fill="#B18BE8" stroke="#404040" stroke-width="4" stroke-miterlimit="10"/>
<path d="M184.8 313.6C193.526 313.6 200.6 306.526 200.6 297.8C200.6 289.074 193.526 282 184.8 282C176.074 282 169 289.074 169 297.8C169 306.526 176.074 313.6 184.8 313.6Z" fill="#B18BE8" stroke="#404040" stroke-width="4" stroke-miterlimit="10"/>
<path d="M123.8 313.6C132.526 313.6 139.6 306.526 139.6 297.8C139.6 289.074 132.526 282 123.8 282C115.074 282 108 289.074 108 297.8C108 306.526 115.074 313.6 123.8 313.6Z" fill="#B18BE8" stroke="#404040" stroke-width="4" stroke-miterlimit="10"/>
<path d="M741 239H675" stroke="#CCCCCC" stroke-width="4" stroke-linecap="round" stroke-linejoin="round" stroke-dasharray="1 10"/>
<path d="M17.5 239H321.5H642" stroke="#404040" stroke-width="4"/>
<path d="M641.8 253.6C650.526 253.6 657.6 246.526 657.6 237.8C657.6 229.074 650.526 222 641.8 222C633.074 222 626 229.074 626 237.8C626 246.526 633.074 253.6 641.8 253.6Z" fill="#B3E3FF" stroke="#404040" stroke-width="4" stroke-miterlimit="10"/>
<path d="M320.8 253.6C329.526 253.6 336.6 246.526 336.6 237.8C336.6 229.074 329.526 222 320.8 222C312.074 222 305 229.074 305 237.8C305 246.526 312.074 253.6 320.8 253.6Z" fill="#B3E3FF" stroke="#404040" stroke-width="4" stroke-miterlimit="10"/>
<path d="M17.8 253.6C26.5261 253.6 33.6 246.526 33.6 237.8C33.6 229.074 26.5261 222 17.8 222C9.0739 222 2 229.074 2 237.8C2 246.526 9.0739 253.6 17.8 253.6Z" fill="#B3E3FF" stroke="#404040" stroke-width="4" stroke-miterlimit="10"/>
<path d="M650.3 195.1L642.2 203.3L634 195.1M642.2 201.6V184V201.6Z" stroke="#404040" stroke-width="4" stroke-miterlimit="10" stroke-linecap="round" stroke-linejoin="round"/>
<path d="M329.3 195.1L321.2 203.3L313 195.1M321.2 201.6V184V201.6Z" stroke="#404040" stroke-width="4" stroke-miterlimit="10" stroke-linecap="round" stroke-linejoin="round"/>
<path d="M79.3 195.1L71.2 203.3L63 195.1M71.2 201.6V184V201.6Z" stroke="#404040" stroke-width="4" stroke-miterlimit="10" stroke-linecap="round" stroke-linejoin="round"/>
<path d="M621 137H663V169H621V137Z" fill="#B3E3FF" stroke="#404040" stroke-width="4" stroke-miterlimit="10" stroke-linecap="round" stroke-linejoin="round"/>
<path d="M634.61 155.776L636.482 150.388H637.934L635.414 157H633.782L631.274 150.388H632.738L634.61 155.776ZM638.608 149.5V148.252H641.104V157H639.724V149.5H638.608ZM643.716 157.084C643.468 157.084 643.26 157 643.092 156.832C642.924 156.664 642.84 156.456 642.84 156.208C642.84 155.96 642.924 155.752 643.092 155.584C643.26 155.416 643.468 155.332 643.716 155.332C643.956 155.332 644.16 155.416 644.328 155.584C644.496 155.752 644.58 155.96 644.58 156.208C644.58 156.456 644.496 156.664 644.328 156.832C644.16 157 643.956 157.084 643.716 157.084ZM645.878 152.512C645.878 151.128 646.11 150.048 646.574 149.272C647.046 148.488 647.854 148.096 648.998 148.096C650.142 148.096 650.946 148.488 651.41 149.272C651.882 150.048 652.118 151.128 652.118 152.512C652.118 153.912 651.882 155.008 651.41 155.8C650.946 156.584 650.142 156.976 648.998 156.976C647.854 156.976 647.046 156.584 646.574 155.8C646.11 155.008 645.878 153.912 645.878 152.512ZM650.774 152.512C650.774 151.864 650.73 151.316 650.642 150.868C650.562 150.42 650.394 150.056 650.138 149.776C649.882 149.488 649.502 149.344 648.998 149.344C648.494 149.344 648.114 149.488 647.858 149.776C647.602 150.056 647.43 150.42 647.342 150.868C647.262 151.316 647.222 151.864 647.222 152.512C647.222 153.184 647.262 153.748 647.342 154.204C647.422 154.66 647.59 155.028 647.846 155.308C648.11 155.588 648.494 155.728 648.998 155.728C649.502 155.728 649.882 155.588 650.138 155.308C650.402 155.028 650.574 154.66 650.654 154.204C650.734 153.748 650.774 153.184 650.774 152.512Z" fill="black"/>
<path d="M300 137H342V169H300V137Z" fill="#B3E3FF" stroke="#404040" stroke-width="4" stroke-miterlimit="10" stroke-linecap="round" stroke-linejoin="round"/>
<path d="M312.245 155.776L314.117 150.388H315.569L313.049 157H311.417L308.909 150.388H310.373L312.245 155.776ZM316.423 152.512C316.423 151.128 316.655 150.048 317.119 149.272C317.591 148.488 318.399 148.096 319.543 148.096C320.687 148.096 321.491 148.488 321.955 149.272C322.427 150.048 322.663 151.128 322.663 152.512C322.663 153.912 322.427 155.008 321.955 155.8C321.491 156.584 320.687 156.976 319.543 156.976C318.399 156.976 317.591 156.584 317.119 155.8C316.655 155.008 316.423 153.912 316.423 152.512ZM321.319 152.512C321.319 151.864 321.275 151.316 321.187 150.868C321.107 150.42 320.939 150.056 320.683 149.776C320.427 149.488 320.047 149.344 319.543 149.344C319.039 149.344 318.659 149.488 318.403 149.776C318.147 150.056 317.975 150.42 317.887 150.868C317.807 151.316 317.767 151.864 317.767 152.512C317.767 153.184 317.807 153.748 317.887 154.204C317.967 154.66 318.135 155.028 318.391 155.308C318.655 155.588 319.039 155.728 319.543 155.728C320.047 155.728 320.427 155.588 320.683 155.308C320.947 155.028 321.119 154.66 321.199 154.204C321.279 153.748 321.319 153.184 321.319 152.512ZM324.843 157.084C324.595 157.084 324.387 157 324.219 156.832C324.051 156.664 323.967 156.456 323.967 156.208C323.967 155.96 324.051 155.752 324.219 155.584C324.387 155.416 324.595 155.332 324.843 155.332C325.083 155.332 325.287 155.416 325.455 155.584C325.623 155.752 325.707 155.96 325.707 156.208C325.707 156.456 325.623 156.664 325.455 156.832C325.287 157 325.083 157.084 324.843 157.084ZM327.761 155.14C328.529 154.476 329.133 153.932 329.573 153.508C330.021 153.076 330.393 152.628 330.689 152.164C330.985 151.7 331.133 151.236 331.133 150.772C331.133 150.292 331.017 149.916 330.785 149.644C330.561 149.372 330.205 149.236 329.717 149.236C329.245 149.236 328.877 149.388 328.613 149.692C328.357 149.988 328.221 150.388 328.205 150.892H326.885C326.909 149.98 327.181 149.284 327.701 148.804C328.229 148.316 328.897 148.072 329.705 148.072C330.577 148.072 331.257 148.312 331.745 148.792C332.241 149.272 332.489 149.912 332.489 150.712C332.489 151.288 332.341 151.844 332.045 152.38C331.757 152.908 331.409 153.384 331.001 153.808C330.601 154.224 330.089 154.708 329.465 155.26L328.925 155.74H332.729V156.88H326.897V155.884L327.761 155.14Z" fill="black"/>
<path d="M50 135H92V167H50V135Z" fill="#B3E3FF" stroke="#404040" stroke-width="4" stroke-miterlimit="10" stroke-linecap="round" stroke-linejoin="round"/>
<path d="M63.6103 153.776L65.4823 148.388H66.9343L64.4143 155H62.7823L60.2743 148.388H61.7383L63.6103 153.776ZM67.7884 150.512C67.7884 149.128 68.0204 148.048 68.4844 147.272C68.9564 146.488 69.7644 146.096 70.9084 146.096C72.0524 146.096 72.8564 146.488 73.3204 147.272C73.7924 148.048 74.0284 149.128 74.0284 150.512C74.0284 151.912 73.7924 153.008 73.3204 153.8C72.8564 154.584 72.0524 154.976 70.9084 154.976C69.7644 154.976 68.9564 154.584 68.4844 153.8C68.0204 153.008 67.7884 151.912 67.7884 150.512ZM72.6844 150.512C72.6844 149.864 72.6404 149.316 72.5524 148.868C72.4724 148.42 72.3044 148.056 72.0484 147.776C71.7924 147.488 71.4124 147.344 70.9084 147.344C70.4044 147.344 70.0244 147.488 69.7684 147.776C69.5124 148.056 69.3404 148.42 69.2524 148.868C69.1724 149.316 69.1324 149.864 69.1324 150.512C69.1324 151.184 69.1724 151.748 69.2524 152.204C69.3324 152.66 69.5004 153.028 69.7564 153.308C70.0204 153.588 70.4044 153.728 70.9084 153.728C71.4124 153.728 71.7924 153.588 72.0484 153.308C72.3124 153.028 72.4844 152.66 72.5644 152.204C72.6444 151.748 72.6844 151.184 72.6844 150.512ZM76.2079 155.084C75.9599 155.084 75.7519 155 75.5839 154.832C75.4159 154.664 75.3319 154.456 75.3319 154.208C75.3319 153.96 75.4159 153.752 75.5839 153.584C75.7519 153.416 75.9599 153.332 76.2079 153.332C76.4479 153.332 76.6519 153.416 76.8199 153.584C76.9879 153.752 77.0719 153.96 77.0719 154.208C77.0719 154.456 76.9879 154.664 76.8199 154.832C76.6519 155 76.4479 155.084 76.2079 155.084ZM78.1904 147.5V146.252H80.6864V155H79.3064V147.5H78.1904Z" fill="black"/>
<path d="M2 2H98.2V52H2V2Z" fill="#B3E3FF" stroke="#404040" stroke-width="4" stroke-miterlimit="10" stroke-linecap="round" stroke-linejoin="round"/>
<path d="M38.8832 22.66V31H37.5152V25.288L34.9712 31H34.0232L31.4672 25.288V31H30.0992V22.66H31.5752L34.5032 29.2L37.4192 22.66H38.8832ZM40.2253 27.664C40.2253 27 40.3613 26.412 40.6333 25.9C40.9133 25.388 41.2893 24.992 41.7613 24.712C42.2413 24.424 42.7693 24.28 43.3453 24.28C43.8653 24.28 44.3173 24.384 44.7013 24.592C45.0933 24.792 45.4053 25.044 45.6373 25.348V24.388H47.0173V31H45.6373V30.016C45.4053 30.328 45.0893 30.588 44.6893 30.796C44.2893 31.004 43.8333 31.108 43.3213 31.108C42.7533 31.108 42.2333 30.964 41.7613 30.676C41.2893 30.38 40.9133 29.972 40.6333 29.452C40.3613 28.924 40.2253 28.328 40.2253 27.664ZM45.6373 27.688C45.6373 27.232 45.5413 26.836 45.3493 26.5C45.1653 26.164 44.9213 25.908 44.6173 25.732C44.3133 25.556 43.9853 25.468 43.6333 25.468C43.2813 25.468 42.9533 25.556 42.6493 25.732C42.3453 25.9 42.0973 26.152 41.9053 26.488C41.7213 26.816 41.6293 27.208 41.6293 27.664C41.6293 28.12 41.7213 28.52 41.9053 28.864C42.0973 29.208 42.3453 29.472 42.6493 29.656C42.9613 29.832 43.2893 29.92 43.6333 29.92C43.9853 29.92 44.3133 29.832 44.6173 29.656C44.9213 29.48 45.1653 29.224 45.3493 28.888C45.5413 28.544 45.6373 28.144 45.6373 27.688ZM51.2141 31.108C50.6941 31.108 50.2261 31.016 49.8101 30.832C49.4021 30.64 49.0781 30.384 48.8381 30.064C48.5981 29.736 48.4701 29.372 48.4541 28.972H49.8701C49.8941 29.252 50.0261 29.488 50.2661 29.68C50.5141 29.864 50.8221 29.956 51.1901 29.956C51.5741 29.956 51.8701 29.884 52.0781 29.74C52.2941 29.588 52.4021 29.396 52.4021 29.164C52.4021 28.916 52.2821 28.732 52.0421 28.612C51.8101 28.492 51.4381 28.36 50.9261 28.216C50.4301 28.08 50.0261 27.948 49.7141 27.82C49.4021 27.692 49.1301 27.496 48.8981 27.232C48.6741 26.968 48.5621 26.62 48.5621 26.188C48.5621 25.836 48.6661 25.516 48.8741 25.228C49.0821 24.932 49.3781 24.7 49.7621 24.532C50.1541 24.364 50.6021 24.28 51.1061 24.28C51.8581 24.28 52.4621 24.472 52.9181 24.856C53.3821 25.232 53.6301 25.748 53.6621 26.404H52.2941C52.2701 26.108 52.1501 25.872 51.9341 25.696C51.7181 25.52 51.4261 25.432 51.0581 25.432C50.6981 25.432 50.4221 25.5 50.2301 25.636C50.0381 25.772 49.9421 25.952 49.9421 26.176C49.9421 26.352 50.0061 26.5 50.1341 26.62C50.2621 26.74 50.4181 26.836 50.6021 26.908C50.7861 26.972 51.0581 27.056 51.4181 27.16C51.8981 27.288 52.2901 27.42 52.5941 27.556C52.9061 27.684 53.1741 27.876 53.3981 28.132C53.6221 28.388 53.7381 28.728 53.7461 29.152C53.7461 29.528 53.6421 29.864 53.4341 30.16C53.2261 30.456 52.9301 30.688 52.5461 30.856C52.1701 31.024 51.7261 31.108 51.2141 31.108ZM56.8202 25.504V29.164C56.8202 29.412 56.8762 29.592 56.9882 29.704C57.1082 29.808 57.3082 29.86 57.5882 29.86H58.4282V31H57.3482C56.7322 31 56.2602 30.856 55.9322 30.568C55.6042 30.28 55.4402 29.812 55.4402 29.164V25.504H54.6602V24.388H55.4402V22.744H56.8202V24.388H58.4282V25.504H56.8202ZM65.7491 27.532C65.7491 27.78 65.7331 28.004 65.7011 28.204H60.6491C60.6891 28.732 60.8851 29.156 61.2371 29.476C61.5891 29.796 62.0211 29.956 62.5331 29.956C63.2691 29.956 63.7891 29.648 64.0931 29.032H65.5691C65.3691 29.64 65.0051 30.14 64.4771 30.532C63.9571 30.916 63.3091 31.108 62.5331 31.108C61.9011 31.108 61.3331 30.968 60.8291 30.688C60.3331 30.4 59.9411 30 59.6531 29.488C59.3731 28.968 59.2331 28.368 59.2331 27.688C59.2331 27.008 59.3691 26.412 59.6411 25.9C59.9211 25.38 60.3091 24.98 60.8051 24.7C61.3091 24.42 61.8851 24.28 62.5331 24.28C63.1571 24.28 63.7131 24.416 64.2011 24.688C64.6891 24.96 65.0691 25.344 65.3411 25.84C65.6131 26.328 65.7491 26.892 65.7491 27.532ZM64.3211 27.1C64.3131 26.596 64.1331 26.192 63.7811 25.888C63.4291 25.584 62.9931 25.432 62.4731 25.432C62.0011 25.432 61.5971 25.584 61.2611 25.888C60.9251 26.184 60.7251 26.588 60.6611 27.1H64.3211ZM68.4633 25.348C68.6633 25.012 68.9273 24.752 69.2553 24.568C69.5913 24.376 69.9873 24.28 70.4433 24.28V25.696H70.0953C69.5593 25.696 69.1513 25.832 68.8713 26.104C68.5993 26.376 68.4633 26.848 68.4633 27.52V31H67.0953V24.388H68.4633V25.348Z" fill="#131313"/>
<path d="M146.2 2H242.4V52H146.2V2Z" fill="#B18BE8" stroke="#404040" stroke-width="4" stroke-miterlimit="10" stroke-linecap="round" stroke-linejoin="round"/>
<path d="M188.698 31H187.33L183.214 24.772V31H181.846V22.648H183.214L187.33 28.864V22.648H188.698V31ZM196.555 27.532C196.555 27.78 196.539 28.004 196.507 28.204H191.455C191.495 28.732 191.691 29.156 192.043 29.476C192.395 29.796 192.827 29.956 193.339 29.956C194.075 29.956 194.595 29.648 194.899 29.032H196.375C196.175 29.64 195.811 30.14 195.283 30.532C194.763 30.916 194.115 31.108 193.339 31.108C192.707 31.108 192.139 30.968 191.635 30.688C191.139 30.4 190.747 30 190.459 29.488C190.179 28.968 190.039 28.368 190.039 27.688C190.039 27.008 190.175 26.412 190.447 25.9C190.727 25.38 191.115 24.98 191.611 24.7C192.115 24.42 192.691 24.28 193.339 24.28C193.963 24.28 194.519 24.416 195.007 24.688C195.495 24.96 195.875 25.344 196.147 25.84C196.419 26.328 196.555 26.892 196.555 27.532ZM195.127 27.1C195.119 26.596 194.939 26.192 194.587 25.888C194.235 25.584 193.799 25.432 193.279 25.432C192.807 25.432 192.403 25.584 192.067 25.888C191.731 26.184 191.531 26.588 191.467 27.1H195.127ZM200.733 27.652L202.869 31H201.321L199.893 28.756L198.549 31H197.121L199.257 27.748L197.121 24.388H198.669L200.097 26.632L201.441 24.388H202.869L200.733 27.652ZM205.485 25.504V29.164C205.485 29.412 205.541 29.592 205.653 29.704C205.773 29.808 205.973 29.86 206.253 29.86H207.093V31H206.013C205.397 31 204.925 30.856 204.597 30.568C204.269 30.28 204.105 29.812 204.105 29.164V25.504H203.325V24.388H204.105V22.744H205.485V24.388H207.093V25.504H205.485Z" fill="#131313"/>
</svg>
