<svg width="761" height="432" viewBox="0 0 761 432" fill="none" xmlns="http://www.w3.org/2000/svg">
<path d="M750 359C666.037 359 538.963 359 455 359" stroke="#CCCCCC" stroke-width="4" stroke-linecap="round" stroke-linejoin="round" stroke-dasharray="1 10"/>
<path d="M140 357C176.437 357 205.927 357 234.5 357" stroke="#CCCCCC" stroke-width="4" stroke-linecap="round" stroke-linejoin="round" stroke-dasharray="1 10"/>
<path d="M17 357C53.4372 357 79.4273 357 108 357" stroke="#CCCCCC" stroke-width="4" stroke-linecap="round" stroke-linejoin="round" stroke-dasharray="1 10"/>
<path d="M174.185 299C174.185 299 168.685 299 217.685 299C266.685 299 225.185 359 264.685 359H418C467 359 425.5 299 465 299" stroke="#404040" stroke-width="4"/>
<path d="M370.8 372.6C379.526 372.6 386.6 365.526 386.6 356.8C386.6 348.074 379.526 341 370.8 341C362.074 341 355 348.074 355 356.8C355 365.526 362.074 372.6 370.8 372.6Z" fill="#55FFC2" stroke="#404040" stroke-width="4" stroke-miterlimit="10"/>
<path d="M320.8 372.6C329.526 372.6 336.6 365.526 336.6 356.8C336.6 348.074 329.526 341 320.8 341C312.074 341 305 348.074 305 356.8C305 365.526 312.074 372.6 320.8 372.6Z" fill="#55FFC2" stroke="#404040" stroke-width="4" stroke-miterlimit="10"/>
<path d="M751 414L409 414" stroke="#CCCCCC" stroke-width="4" stroke-linecap="round" stroke-linejoin="round" stroke-dasharray="1 10"/>
<path d="M90 414H17" stroke="#CCCCCC" stroke-width="4" stroke-linecap="round" stroke-linejoin="round" stroke-dasharray="1 10"/>
<path d="M124 298V414H371.5" stroke="#404040" stroke-width="4"/>
<path d="M370.8 429.6C379.526 429.6 386.6 422.526 386.6 413.8C386.6 405.074 379.526 398 370.8 398C362.074 398 355 405.074 355 413.8C355 422.526 362.074 429.6 370.8 429.6Z" fill="#55FFC2" stroke="#404040" stroke-width="4" stroke-miterlimit="10"/>
<path d="M320.8 429.6C329.526 429.6 336.6 422.526 336.6 413.8C336.6 405.074 329.526 398 320.8 398C312.074 398 305 405.074 305 413.8C305 422.526 312.074 429.6 320.8 429.6Z" fill="#55FFC2" stroke="#404040" stroke-width="4" stroke-miterlimit="10"/>
<path d="M226.8 429.6C235.526 429.6 242.6 422.526 242.6 413.8C242.6 405.074 235.526 398 226.8 398C218.074 398 211 405.074 211 413.8C211 422.526 218.074 429.6 226.8 429.6Z" fill="#55FFC2" stroke="#404040" stroke-width="4" stroke-miterlimit="10"/>
<path d="M123.8 429.6C132.526 429.6 139.6 422.526 139.6 413.8C139.6 405.074 132.526 398 123.8 398C115.074 398 108 405.074 108 413.8C108 422.526 115.074 429.6 123.8 429.6Z" fill="#55FFC2" stroke="#404040" stroke-width="4" stroke-miterlimit="10"/>
<path d="M68.5 297H17" stroke="#CCCCCC" stroke-width="4" stroke-linecap="round" stroke-linejoin="round" stroke-dasharray="1 10"/>
<path d="M123 299H743M17.5 239C17.5 239 12 239 61 239C110 239 68.5 299 108 299" stroke="#404040" stroke-width="4"/>
<path d="M742.8 313.6C751.526 313.6 758.6 306.526 758.6 297.8C758.6 289.074 751.526 282 742.8 282C734.074 282 727 289.074 727 297.8C727 306.526 734.074 313.6 742.8 313.6Z" fill="#B18BE8" stroke="#404040" stroke-width="4" stroke-miterlimit="10"/>
<path d="M501.8 314.6C510.526 314.6 517.6 307.526 517.6 298.8C517.6 290.074 510.526 283 501.8 283C493.074 283 486 290.074 486 298.8C486 307.526 493.074 314.6 501.8 314.6Z" fill="#B18BE8" stroke="#404040" stroke-width="4" stroke-miterlimit="10"/>
<path d="M320.8 313.6C329.526 313.6 336.6 306.526 336.6 297.8C336.6 289.074 329.526 282 320.8 282C312.074 282 305 289.074 305 297.8C305 306.526 312.074 313.6 320.8 313.6Z" fill="#B18BE8" stroke="#404040" stroke-width="4" stroke-miterlimit="10"/>
<path d="M184.8 313.6C193.526 313.6 200.6 306.526 200.6 297.8C200.6 289.074 193.526 282 184.8 282C176.074 282 169 289.074 169 297.8C169 306.526 176.074 313.6 184.8 313.6Z" fill="#B18BE8" stroke="#404040" stroke-width="4" stroke-miterlimit="10"/>
<path d="M123.8 313.6C132.526 313.6 139.6 306.526 139.6 297.8C139.6 289.074 132.526 282 123.8 282C115.074 282 108 289.074 108 297.8C108 306.526 115.074 313.6 123.8 313.6Z" fill="#B18BE8" stroke="#404040" stroke-width="4" stroke-miterlimit="10"/>
<path d="M741 239H675" stroke="#CCCCCC" stroke-width="4" stroke-linecap="round" stroke-linejoin="round" stroke-dasharray="1 10"/>
<path d="M17.5 239H321.5H642" stroke="#404040" stroke-width="4"/>
<path d="M641.8 253.6C650.526 253.6 657.6 246.526 657.6 237.8C657.6 229.074 650.526 222 641.8 222C633.074 222 626 229.074 626 237.8C626 246.526 633.074 253.6 641.8 253.6Z" fill="#B3E3FF" stroke="#404040" stroke-width="4" stroke-miterlimit="10"/>
<path d="M320.8 253.6C329.526 253.6 336.6 246.526 336.6 237.8C336.6 229.074 329.526 222 320.8 222C312.074 222 305 229.074 305 237.8C305 246.526 312.074 253.6 320.8 253.6Z" fill="#B3E3FF" stroke="#404040" stroke-width="4" stroke-miterlimit="10"/>
<path d="M17.8 253.6C26.5261 253.6 33.6 246.526 33.6 237.8C33.6 229.074 26.5261 222 17.8 222C9.0739 222 2 229.074 2 237.8C2 246.526 9.0739 253.6 17.8 253.6Z" fill="#B3E3FF" stroke="#404040" stroke-width="4" stroke-miterlimit="10"/>
<path d="M650.3 195.1L642.2 203.3L634 195.1M642.2 201.6V184V201.6Z" stroke="#404040" stroke-width="4" stroke-miterlimit="10" stroke-linecap="round" stroke-linejoin="round"/>
<path d="M329.3 195.1L321.2 203.3L313 195.1M321.2 201.6V184V201.6Z" stroke="#404040" stroke-width="4" stroke-miterlimit="10" stroke-linecap="round" stroke-linejoin="round"/>
<path d="M79.3 195.1L71.2 203.3L63 195.1M71.2 201.6V184V201.6Z" stroke="#404040" stroke-width="4" stroke-miterlimit="10" stroke-linecap="round" stroke-linejoin="round"/>
<path d="M621 137H663V169H621V137Z" fill="#B3E3FF" stroke="#404040" stroke-width="4" stroke-miterlimit="10" stroke-linecap="round" stroke-linejoin="round"/>
<path d="M634.61 155.776L636.482 150.388H637.934L635.414 157H633.782L631.274 150.388H632.738L634.61 155.776ZM638.608 149.5V148.252H641.104V157H639.724V149.5H638.608ZM643.716 157.084C643.468 157.084 643.26 157 643.092 156.832C642.924 156.664 642.84 156.456 642.84 156.208C642.84 155.96 642.924 155.752 643.092 155.584C643.26 155.416 643.468 155.332 643.716 155.332C643.956 155.332 644.16 155.416 644.328 155.584C644.496 155.752 644.58 155.96 644.58 156.208C644.58 156.456 644.496 156.664 644.328 156.832C644.16 157 643.956 157.084 643.716 157.084ZM645.878 152.512C645.878 151.128 646.11 150.048 646.574 149.272C647.046 148.488 647.854 148.096 648.998 148.096C650.142 148.096 650.946 148.488 651.41 149.272C651.882 150.048 652.118 151.128 652.118 152.512C652.118 153.912 651.882 155.008 651.41 155.8C650.946 156.584 650.142 156.976 648.998 156.976C647.854 156.976 647.046 156.584 646.574 155.8C646.11 155.008 645.878 153.912 645.878 152.512ZM650.774 152.512C650.774 151.864 650.73 151.316 650.642 150.868C650.562 150.42 650.394 150.056 650.138 149.776C649.882 149.488 649.502 149.344 648.998 149.344C648.494 149.344 648.114 149.488 647.858 149.776C647.602 150.056 647.43 150.42 647.342 150.868C647.262 151.316 647.222 151.864 647.222 152.512C647.222 153.184 647.262 153.748 647.342 154.204C647.422 154.66 647.59 155.028 647.846 155.308C648.11 155.588 648.494 155.728 648.998 155.728C649.502 155.728 649.882 155.588 650.138 155.308C650.402 155.028 650.574 154.66 650.654 154.204C650.734 153.748 650.774 153.184 650.774 152.512Z" fill="black"/>
<path d="M300 137H342V169H300V137Z" fill="#B3E3FF" stroke="#404040" stroke-width="4" stroke-miterlimit="10" stroke-linecap="round" stroke-linejoin="round"/>
<path d="M312.245 155.776L314.117 150.388H315.569L313.049 157H311.417L308.909 150.388H310.373L312.245 155.776ZM316.423 152.512C316.423 151.128 316.655 150.048 317.119 149.272C317.591 148.488 318.399 148.096 319.543 148.096C320.687 148.096 321.491 148.488 321.955 149.272C322.427 150.048 322.663 151.128 322.663 152.512C322.663 153.912 322.427 155.008 321.955 155.8C321.491 156.584 320.687 156.976 319.543 156.976C318.399 156.976 317.591 156.584 317.119 155.8C316.655 155.008 316.423 153.912 316.423 152.512ZM321.319 152.512C321.319 151.864 321.275 151.316 321.187 150.868C321.107 150.42 320.939 150.056 320.683 149.776C320.427 149.488 320.047 149.344 319.543 149.344C319.039 149.344 318.659 149.488 318.403 149.776C318.147 150.056 317.975 150.42 317.887 150.868C317.807 151.316 317.767 151.864 317.767 152.512C317.767 153.184 317.807 153.748 317.887 154.204C317.967 154.66 318.135 155.028 318.391 155.308C318.655 155.588 319.039 155.728 319.543 155.728C320.047 155.728 320.427 155.588 320.683 155.308C320.947 155.028 321.119 154.66 321.199 154.204C321.279 153.748 321.319 153.184 321.319 152.512ZM324.843 157.084C324.595 157.084 324.387 157 324.219 156.832C324.051 156.664 323.967 156.456 323.967 156.208C323.967 155.96 324.051 155.752 324.219 155.584C324.387 155.416 324.595 155.332 324.843 155.332C325.083 155.332 325.287 155.416 325.455 155.584C325.623 155.752 325.707 155.96 325.707 156.208C325.707 156.456 325.623 156.664 325.455 156.832C325.287 157 325.083 157.084 324.843 157.084ZM327.761 155.14C328.529 154.476 329.133 153.932 329.573 153.508C330.021 153.076 330.393 152.628 330.689 152.164C330.985 151.7 331.133 151.236 331.133 150.772C331.133 150.292 331.017 149.916 330.785 149.644C330.561 149.372 330.205 149.236 329.717 149.236C329.245 149.236 328.877 149.388 328.613 149.692C328.357 149.988 328.221 150.388 328.205 150.892H326.885C326.909 149.98 327.181 149.284 327.701 148.804C328.229 148.316 328.897 148.072 329.705 148.072C330.577 148.072 331.257 148.312 331.745 148.792C332.241 149.272 332.489 149.912 332.489 150.712C332.489 151.288 332.341 151.844 332.045 152.38C331.757 152.908 331.409 153.384 331.001 153.808C330.601 154.224 330.089 154.708 329.465 155.26L328.925 155.74H332.729V156.88H326.897V155.884L327.761 155.14Z" fill="black"/>
<path d="M50 135H92V167H50V135Z" fill="#B3E3FF" stroke="#404040" stroke-width="4" stroke-miterlimit="10" stroke-linecap="round" stroke-linejoin="round"/>
<path d="M63.6103 153.776L65.4823 148.388H66.9343L64.4143 155H62.7823L60.2743 148.388H61.7383L63.6103 153.776ZM67.7884 150.512C67.7884 149.128 68.0204 148.048 68.4844 147.272C68.9564 146.488 69.7644 146.096 70.9084 146.096C72.0524 146.096 72.8564 146.488 73.3204 147.272C73.7924 148.048 74.0284 149.128 74.0284 150.512C74.0284 151.912 73.7924 153.008 73.3204 153.8C72.8564 154.584 72.0524 154.976 70.9084 154.976C69.7644 154.976 68.9564 154.584 68.4844 153.8C68.0204 153.008 67.7884 151.912 67.7884 150.512ZM72.6844 150.512C72.6844 149.864 72.6404 149.316 72.5524 148.868C72.4724 148.42 72.3044 148.056 72.0484 147.776C71.7924 147.488 71.4124 147.344 70.9084 147.344C70.4044 147.344 70.0244 147.488 69.7684 147.776C69.5124 148.056 69.3404 148.42 69.2524 148.868C69.1724 149.316 69.1324 149.864 69.1324 150.512C69.1324 151.184 69.1724 151.748 69.2524 152.204C69.3324 152.66 69.5004 153.028 69.7564 153.308C70.0204 153.588 70.4044 153.728 70.9084 153.728C71.4124 153.728 71.7924 153.588 72.0484 153.308C72.3124 153.028 72.4844 152.66 72.5644 152.204C72.6444 151.748 72.6844 151.184 72.6844 150.512ZM76.2079 155.084C75.9599 155.084 75.7519 155 75.5839 154.832C75.4159 154.664 75.3319 154.456 75.3319 154.208C75.3319 153.96 75.4159 153.752 75.5839 153.584C75.7519 153.416 75.9599 153.332 76.2079 153.332C76.4479 153.332 76.6519 153.416 76.8199 153.584C76.9879 153.752 77.0719 153.96 77.0719 154.208C77.0719 154.456 76.9879 154.664 76.8199 154.832C76.6519 155 76.4479 155.084 76.2079 155.084ZM78.1904 147.5V146.252H80.6864V155H79.3064V147.5H78.1904Z" fill="black"/>
<path d="M2 2H98.2V52H2V2Z" fill="#B3E3FF" stroke="#404040" stroke-width="4" stroke-miterlimit="10" stroke-linecap="round" stroke-linejoin="round"/>
<path d="M38.8832 22.66V31H37.5152V25.288L34.9712 31H34.0232L31.4672 25.288V31H30.0992V22.66H31.5752L34.5032 29.2L37.4192 22.66H38.8832ZM40.2253 27.664C40.2253 27 40.3613 26.412 40.6333 25.9C40.9133 25.388 41.2893 24.992 41.7613 24.712C42.2413 24.424 42.7693 24.28 43.3453 24.28C43.8653 24.28 44.3173 24.384 44.7013 24.592C45.0933 24.792 45.4053 25.044 45.6373 25.348V24.388H47.0173V31H45.6373V30.016C45.4053 30.328 45.0893 30.588 44.6893 30.796C44.2893 31.004 43.8333 31.108 43.3213 31.108C42.7533 31.108 42.2333 30.964 41.7613 30.676C41.2893 30.38 40.9133 29.972 40.6333 29.452C40.3613 28.924 40.2253 28.328 40.2253 27.664ZM45.6373 27.688C45.6373 27.232 45.5413 26.836 45.3493 26.5C45.1653 26.164 44.9213 25.908 44.6173 25.732C44.3133 25.556 43.9853 25.468 43.6333 25.468C43.2813 25.468 42.9533 25.556 42.6493 25.732C42.3453 25.9 42.0973 26.152 41.9053 26.488C41.7213 26.816 41.6293 27.208 41.6293 27.664C41.6293 28.12 41.7213 28.52 41.9053 28.864C42.0973 29.208 42.3453 29.472 42.6493 29.656C42.9613 29.832 43.2893 29.92 43.6333 29.92C43.9853 29.92 44.3133 29.832 44.6173 29.656C44.9213 29.48 45.1653 29.224 45.3493 28.888C45.5413 28.544 45.6373 28.144 45.6373 27.688ZM51.2141 31.108C50.6941 31.108 50.2261 31.016 49.8101 30.832C49.4021 30.64 49.0781 30.384 48.8381 30.064C48.5981 29.736 48.4701 29.372 48.4541 28.972H49.8701C49.8941 29.252 50.0261 29.488 50.2661 29.68C50.5141 29.864 50.8221 29.956 51.1901 29.956C51.5741 29.956 51.8701 29.884 52.0781 29.74C52.2941 29.588 52.4021 29.396 52.4021 29.164C52.4021 28.916 52.2821 28.732 52.0421 28.612C51.8101 28.492 51.4381 28.36 50.9261 28.216C50.4301 28.08 50.0261 27.948 49.7141 27.82C49.4021 27.692 49.1301 27.496 48.8981 27.232C48.6741 26.968 48.5621 26.62 48.5621 26.188C48.5621 25.836 48.6661 25.516 48.8741 25.228C49.0821 24.932 49.3781 24.7 49.7621 24.532C50.1541 24.364 50.6021 24.28 51.1061 24.28C51.8581 24.28 52.4621 24.472 52.9181 24.856C53.3821 25.232 53.6301 25.748 53.6621 26.404H52.2941C52.2701 26.108 52.1501 25.872 51.9341 25.696C51.7181 25.52 51.4261 25.432 51.0581 25.432C50.6981 25.432 50.4221 25.5 50.2301 25.636C50.0381 25.772 49.9421 25.952 49.9421 26.176C49.9421 26.352 50.0061 26.5 50.1341 26.62C50.2621 26.74 50.4181 26.836 50.6021 26.908C50.7861 26.972 51.0581 27.056 51.4181 27.16C51.8981 27.288 52.2901 27.42 52.5941 27.556C52.9061 27.684 53.1741 27.876 53.3981 28.132C53.6221 28.388 53.7381 28.728 53.7461 29.152C53.7461 29.528 53.6421 29.864 53.4341 30.16C53.2261 30.456 52.9301 30.688 52.5461 30.856C52.1701 31.024 51.7261 31.108 51.2141 31.108ZM56.8202 25.504V29.164C56.8202 29.412 56.8762 29.592 56.9882 29.704C57.1082 29.808 57.3082 29.86 57.5882 29.86H58.4282V31H57.3482C56.7322 31 56.2602 30.856 55.9322 30.568C55.6042 30.28 55.4402 29.812 55.4402 29.164V25.504H54.6602V24.388H55.4402V22.744H56.8202V24.388H58.4282V25.504H56.8202ZM65.7491 27.532C65.7491 27.78 65.7331 28.004 65.7011 28.204H60.6491C60.6891 28.732 60.8851 29.156 61.2371 29.476C61.5891 29.796 62.0211 29.956 62.5331 29.956C63.2691 29.956 63.7891 29.648 64.0931 29.032H65.5691C65.3691 29.64 65.0051 30.14 64.4771 30.532C63.9571 30.916 63.3091 31.108 62.5331 31.108C61.9011 31.108 61.3331 30.968 60.8291 30.688C60.3331 30.4 59.9411 30 59.6531 29.488C59.3731 28.968 59.2331 28.368 59.2331 27.688C59.2331 27.008 59.3691 26.412 59.6411 25.9C59.9211 25.38 60.3091 24.98 60.8051 24.7C61.3091 24.42 61.8851 24.28 62.5331 24.28C63.1571 24.28 63.7131 24.416 64.2011 24.688C64.6891 24.96 65.0691 25.344 65.3411 25.84C65.6131 26.328 65.7491 26.892 65.7491 27.532ZM64.3211 27.1C64.3131 26.596 64.1331 26.192 63.7811 25.888C63.4291 25.584 62.9931 25.432 62.4731 25.432C62.0011 25.432 61.5971 25.584 61.2611 25.888C60.9251 26.184 60.7251 26.588 60.6611 27.1H64.3211ZM68.4633 25.348C68.6633 25.012 68.9273 24.752 69.2553 24.568C69.5913 24.376 69.9873 24.28 70.4433 24.28V25.696H70.0953C69.5593 25.696 69.1513 25.832 68.8713 26.104C68.5993 26.376 68.4633 26.848 68.4633 27.52V31H67.0953V24.388H68.4633V25.348Z" fill="#131313"/>
<path d="M146.2 2H242.4V52H146.2V2Z" fill="#B18BE8" stroke="#404040" stroke-width="4" stroke-miterlimit="10" stroke-linecap="round" stroke-linejoin="round"/>
<path d="M188.698 31H187.33L183.214 24.772V31H181.846V22.648H183.214L187.33 28.864V22.648H188.698V31ZM196.555 27.532C196.555 27.78 196.539 28.004 196.507 28.204H191.455C191.495 28.732 191.691 29.156 192.043 29.476C192.395 29.796 192.827 29.956 193.339 29.956C194.075 29.956 194.595 29.648 194.899 29.032H196.375C196.175 29.64 195.811 30.14 195.283 30.532C194.763 30.916 194.115 31.108 193.339 31.108C192.707 31.108 192.139 30.968 191.635 30.688C191.139 30.4 190.747 30 190.459 29.488C190.179 28.968 190.039 28.368 190.039 27.688C190.039 27.008 190.175 26.412 190.447 25.9C190.727 25.38 191.115 24.98 191.611 24.7C192.115 24.42 192.691 24.28 193.339 24.28C193.963 24.28 194.519 24.416 195.007 24.688C195.495 24.96 195.875 25.344 196.147 25.84C196.419 26.328 196.555 26.892 196.555 27.532ZM195.127 27.1C195.119 26.596 194.939 26.192 194.587 25.888C194.235 25.584 193.799 25.432 193.279 25.432C192.807 25.432 192.403 25.584 192.067 25.888C191.731 26.184 191.531 26.588 191.467 27.1H195.127ZM200.733 27.652L202.869 31H201.321L199.893 28.756L198.549 31H197.121L199.257 27.748L197.121 24.388H198.669L200.097 26.632L201.441 24.388H202.869L200.733 27.652ZM205.485 25.504V29.164C205.485 29.412 205.541 29.592 205.653 29.704C205.773 29.808 205.973 29.86 206.253 29.86H207.093V31H206.013C205.397 31 204.925 30.856 204.597 30.568C204.269 30.28 204.105 29.812 204.105 29.164V25.504H203.325V24.388H204.105V22.744H205.485V24.388H207.093V25.504H205.485Z" fill="#131313"/>
<path d="M290.4 2H386.6V52H290.4V2Z" fill="#55FFC2" stroke="#404040" stroke-width="4" stroke-miterlimit="10" stroke-linecap="round" stroke-linejoin="round"/>
<path d="M321.216 22.66V23.776H317.676V26.236H320.436V27.352H317.676V31H316.308V22.66H321.216ZM328.544 27.532C328.544 27.78 328.528 28.004 328.496 28.204H323.444C323.484 28.732 323.68 29.156 324.032 29.476C324.384 29.796 324.816 29.956 325.328 29.956C326.064 29.956 326.584 29.648 326.888 29.032H328.364C328.164 29.64 327.8 30.14 327.272 30.532C326.752 30.916 326.104 31.108 325.328 31.108C324.696 31.108 324.128 30.968 323.624 30.688C323.128 30.4 322.736 30 322.448 29.488C322.168 28.968 322.028 28.368 322.028 27.688C322.028 27.008 322.164 26.412 322.436 25.9C322.716 25.38 323.104 24.98 323.6 24.7C324.104 24.42 324.68 24.28 325.328 24.28C325.952 24.28 326.508 24.416 326.996 24.688C327.484 24.96 327.864 25.344 328.136 25.84C328.408 26.328 328.544 26.892 328.544 27.532ZM327.116 27.1C327.108 26.596 326.928 26.192 326.576 25.888C326.224 25.584 325.788 25.432 325.268 25.432C324.796 25.432 324.392 25.584 324.056 25.888C323.72 26.184 323.52 26.588 323.456 27.1H327.116ZM329.434 27.664C329.434 27 329.57 26.412 329.842 25.9C330.122 25.388 330.498 24.992 330.97 24.712C331.45 24.424 331.978 24.28 332.554 24.28C333.074 24.28 333.526 24.384 333.91 24.592C334.302 24.792 334.614 25.044 334.846 25.348V24.388H336.226V31H334.846V30.016C334.614 30.328 334.298 30.588 333.898 30.796C333.498 31.004 333.042 31.108 332.53 31.108C331.962 31.108 331.442 30.964 330.97 30.676C330.498 30.38 330.122 29.972 329.842 29.452C329.57 28.924 329.434 28.328 329.434 27.664ZM334.846 27.688C334.846 27.232 334.75 26.836 334.558 26.5C334.374 26.164 334.13 25.908 333.826 25.732C333.522 25.556 333.194 25.468 332.842 25.468C332.49 25.468 332.162 25.556 331.858 25.732C331.554 25.9 331.306 26.152 331.114 26.488C330.93 26.816 330.838 27.208 330.838 27.664C330.838 28.12 330.93 28.52 331.114 28.864C331.306 29.208 331.554 29.472 331.858 29.656C332.17 29.832 332.498 29.92 332.842 29.92C333.194 29.92 333.522 29.832 333.826 29.656C334.13 29.48 334.374 29.224 334.558 28.888C334.75 28.544 334.846 28.144 334.846 27.688ZM339.619 25.504V29.164C339.619 29.412 339.675 29.592 339.787 29.704C339.907 29.808 340.107 29.86 340.387 29.86H341.227V31H340.147C339.531 31 339.059 30.856 338.731 30.568C338.403 30.28 338.239 29.812 338.239 29.164V25.504H337.459V24.388H338.239V22.744H339.619V24.388H341.227V25.504H339.619ZM348.475 24.388V31H347.107V30.22C346.891 30.492 346.607 30.708 346.255 30.868C345.911 31.02 345.543 31.096 345.151 31.096C344.631 31.096 344.163 30.988 343.747 30.772C343.339 30.556 343.015 30.236 342.775 29.812C342.543 29.388 342.427 28.876 342.427 28.276V24.388H343.783V28.072C343.783 28.664 343.931 29.12 344.227 29.44C344.523 29.752 344.927 29.908 345.439 29.908C345.951 29.908 346.355 29.752 346.651 29.44C346.955 29.12 347.107 28.664 347.107 28.072V24.388H348.475ZM351.648 25.348C351.848 25.012 352.112 24.752 352.44 24.568C352.776 24.376 353.172 24.28 353.628 24.28V25.696H353.28C352.744 25.696 352.336 25.832 352.056 26.104C351.784 26.376 351.648 26.848 351.648 27.52V31H350.28V24.388H351.648V25.348ZM360.946 27.532C360.946 27.78 360.93 28.004 360.898 28.204H355.846C355.886 28.732 356.082 29.156 356.434 29.476C356.786 29.796 357.218 29.956 357.73 29.956C358.466 29.956 358.986 29.648 359.29 29.032H360.766C360.566 29.64 360.202 30.14 359.674 30.532C359.154 30.916 358.506 31.108 357.73 31.108C357.098 31.108 356.53 30.968 356.026 30.688C355.53 30.4 355.138 30 354.85 29.488C354.57 28.968 354.43 28.368 354.43 27.688C354.43 27.008 354.566 26.412 354.838 25.9C355.118 25.38 355.506 24.98 356.002 24.7C356.506 24.42 357.082 24.28 357.73 24.28C358.354 24.28 358.91 24.416 359.398 24.688C359.886 24.96 360.266 25.344 360.538 25.84C360.81 26.328 360.946 26.892 360.946 27.532ZM359.518 27.1C359.51 26.596 359.33 26.192 358.978 25.888C358.626 25.584 358.19 25.432 357.67 25.432C357.198 25.432 356.794 25.584 356.458 25.888C356.122 26.184 355.922 26.588 355.858 27.1H359.518Z" fill="#131313"/>
<path d="M434.6 2H530.8V52H434.6V2Z" fill="#55FFC2" stroke="#404040" stroke-width="4" stroke-miterlimit="10" stroke-linecap="round" stroke-linejoin="round"/>
<path d="M465.416 22.66V23.776H461.876V26.236H464.636V27.352H461.876V31H460.508V22.66H465.416ZM472.744 27.532C472.744 27.78 472.728 28.004 472.696 28.204H467.644C467.684 28.732 467.88 29.156 468.232 29.476C468.584 29.796 469.016 29.956 469.528 29.956C470.264 29.956 470.784 29.648 471.088 29.032H472.564C472.364 29.64 472 30.14 471.472 30.532C470.952 30.916 470.304 31.108 469.528 31.108C468.896 31.108 468.328 30.968 467.824 30.688C467.328 30.4 466.936 30 466.648 29.488C466.368 28.968 466.228 28.368 466.228 27.688C466.228 27.008 466.364 26.412 466.636 25.9C466.916 25.38 467.304 24.98 467.8 24.7C468.304 24.42 468.88 24.28 469.528 24.28C470.152 24.28 470.708 24.416 471.196 24.688C471.684 24.96 472.064 25.344 472.336 25.84C472.608 26.328 472.744 26.892 472.744 27.532ZM471.316 27.1C471.308 26.596 471.128 26.192 470.776 25.888C470.424 25.584 469.988 25.432 469.468 25.432C468.996 25.432 468.592 25.584 468.256 25.888C467.92 26.184 467.72 26.588 467.656 27.1H471.316ZM473.634 27.664C473.634 27 473.77 26.412 474.042 25.9C474.322 25.388 474.698 24.992 475.17 24.712C475.65 24.424 476.178 24.28 476.754 24.28C477.274 24.28 477.726 24.384 478.11 24.592C478.502 24.792 478.814 25.044 479.046 25.348V24.388H480.426V31H479.046V30.016C478.814 30.328 478.498 30.588 478.098 30.796C477.698 31.004 477.242 31.108 476.73 31.108C476.162 31.108 475.642 30.964 475.17 30.676C474.698 30.38 474.322 29.972 474.042 29.452C473.77 28.924 473.634 28.328 473.634 27.664ZM479.046 27.688C479.046 27.232 478.95 26.836 478.758 26.5C478.574 26.164 478.33 25.908 478.026 25.732C477.722 25.556 477.394 25.468 477.042 25.468C476.69 25.468 476.362 25.556 476.058 25.732C475.754 25.9 475.506 26.152 475.314 26.488C475.13 26.816 475.038 27.208 475.038 27.664C475.038 28.12 475.13 28.52 475.314 28.864C475.506 29.208 475.754 29.472 476.058 29.656C476.37 29.832 476.698 29.92 477.042 29.92C477.394 29.92 477.722 29.832 478.026 29.656C478.33 29.48 478.574 29.224 478.758 28.888C478.95 28.544 479.046 28.144 479.046 27.688ZM483.819 25.504V29.164C483.819 29.412 483.875 29.592 483.987 29.704C484.107 29.808 484.307 29.86 484.587 29.86H485.427V31H484.347C483.731 31 483.259 30.856 482.931 30.568C482.603 30.28 482.439 29.812 482.439 29.164V25.504H481.659V24.388H482.439V22.744H483.819V24.388H485.427V25.504H483.819ZM492.675 24.388V31H491.307V30.22C491.091 30.492 490.807 30.708 490.455 30.868C490.111 31.02 489.743 31.096 489.351 31.096C488.831 31.096 488.363 30.988 487.947 30.772C487.539 30.556 487.215 30.236 486.975 29.812C486.743 29.388 486.627 28.876 486.627 28.276V24.388H487.983V28.072C487.983 28.664 488.131 29.12 488.427 29.44C488.723 29.752 489.127 29.908 489.639 29.908C490.151 29.908 490.555 29.752 490.851 29.44C491.155 29.12 491.307 28.664 491.307 28.072V24.388H492.675ZM495.848 25.348C496.048 25.012 496.312 24.752 496.64 24.568C496.976 24.376 497.372 24.28 497.828 24.28V25.696H497.48C496.944 25.696 496.536 25.832 496.256 26.104C495.984 26.376 495.848 26.848 495.848 27.52V31H494.48V24.388H495.848V25.348ZM505.146 27.532C505.146 27.78 505.13 28.004 505.098 28.204H500.046C500.086 28.732 500.282 29.156 500.634 29.476C500.986 29.796 501.418 29.956 501.93 29.956C502.666 29.956 503.186 29.648 503.49 29.032H504.966C504.766 29.64 504.402 30.14 503.874 30.532C503.354 30.916 502.706 31.108 501.93 31.108C501.298 31.108 500.73 30.968 500.226 30.688C499.73 30.4 499.338 30 499.05 29.488C498.77 28.968 498.63 28.368 498.63 27.688C498.63 27.008 498.766 26.412 499.038 25.9C499.318 25.38 499.706 24.98 500.202 24.7C500.706 24.42 501.282 24.28 501.93 24.28C502.554 24.28 503.11 24.416 503.598 24.688C504.086 24.96 504.466 25.344 504.738 25.84C505.01 26.328 505.146 26.892 505.146 27.532ZM503.718 27.1C503.71 26.596 503.53 26.192 503.178 25.888C502.826 25.584 502.39 25.432 501.87 25.432C501.398 25.432 500.994 25.584 500.658 25.888C500.322 26.184 500.122 26.588 500.058 27.1H503.718Z" fill="#131313"/>
</svg>
