<svg width="762" height="496" viewBox="0 0 762 496" fill="none" xmlns="http://www.w3.org/2000/svg">
<path d="M751 423C667.037 423 539.963 423 456 423" stroke="#CCCCCC" stroke-width="4" stroke-linecap="round" stroke-linejoin="round" stroke-dasharray="1 10"/>
<path d="M141 423C177.437 423 206.927 423 235.5 423" stroke="#CCCCCC" stroke-width="4" stroke-linecap="round" stroke-linejoin="round" stroke-dasharray="1 10"/>
<path d="M18 423C54.4372 423 80.4273 423 109 423" stroke="#CCCCCC" stroke-width="4" stroke-linecap="round" stroke-linejoin="round" stroke-dasharray="1 10"/>
<path d="M175.185 363C175.185 363 169.685 363 218.685 363C267.685 363 226.185 423 265.685 423H419C468 423 426.5 363 466 363" stroke="#404040" stroke-width="4"/>
<path d="M371.8 436.6C380.526 436.6 387.6 429.526 387.6 420.8C387.6 412.074 380.526 405 371.8 405C363.074 405 356 412.074 356 420.8C356 429.526 363.074 436.6 371.8 436.6Z" fill="#55FFC2" stroke="#404040" stroke-width="4" stroke-miterlimit="10"/>
<path d="M321.8 436.6C330.526 436.6 337.6 429.526 337.6 420.8C337.6 412.074 330.526 405 321.8 405C313.074 405 306 412.074 306 420.8C306 429.526 313.074 436.6 321.8 436.6Z" fill="#55FFC2" stroke="#404040" stroke-width="4" stroke-miterlimit="10"/>
<path d="M752 478L410 478" stroke="#CCCCCC" stroke-width="4" stroke-linecap="round" stroke-linejoin="round" stroke-dasharray="1 10"/>
<path d="M91 478H18" stroke="#CCCCCC" stroke-width="4" stroke-linecap="round" stroke-linejoin="round" stroke-dasharray="1 10"/>
<path d="M125 362V478H372.5" stroke="#404040" stroke-width="4"/>
<path d="M371.8 493.6C380.526 493.6 387.6 486.526 387.6 477.8C387.6 469.074 380.526 462 371.8 462C363.074 462 356 469.074 356 477.8C356 486.526 363.074 493.6 371.8 493.6Z" fill="#55FFC2" stroke="#404040" stroke-width="4" stroke-miterlimit="10"/>
<path d="M321.8 493.6C330.526 493.6 337.6 486.526 337.6 477.8C337.6 469.074 330.526 462 321.8 462C313.074 462 306 469.074 306 477.8C306 486.526 313.074 493.6 321.8 493.6Z" fill="#55FFC2" stroke="#404040" stroke-width="4" stroke-miterlimit="10"/>
<path d="M227.8 493.6C236.526 493.6 243.6 486.526 243.6 477.8C243.6 469.074 236.526 462 227.8 462C219.074 462 212 469.074 212 477.8C212 486.526 219.074 493.6 227.8 493.6Z" fill="#55FFC2" stroke="#404040" stroke-width="4" stroke-miterlimit="10"/>
<path d="M124.8 493.6C133.526 493.6 140.6 486.526 140.6 477.8C140.6 469.074 133.526 462 124.8 462C116.074 462 109 469.074 109 477.8C109 486.526 116.074 493.6 124.8 493.6Z" fill="#55FFC2" stroke="#404040" stroke-width="4" stroke-miterlimit="10"/>
<path d="M716 303C726.574 303 732.794 303 741 303" stroke="#CCCCCC" stroke-width="4" stroke-linecap="round" stroke-linejoin="round" stroke-dasharray="1 10"/>
<path d="M532 303C448.037 303 175.463 303 91.5 303" stroke="#CCCCCC" stroke-width="4" stroke-linecap="round" stroke-linejoin="round" stroke-dasharray="1 10"/>
<path d="M17 303C27.8091 303 41.744 303 58 303" stroke="#CCCCCC" stroke-width="4" stroke-linecap="round" stroke-linejoin="round" stroke-dasharray="1 10"/>
<path d="M503 363C507.865 363 513.532 363 519 363C568 363 523.5 303 563 303H677C726 303 681.5 363 721 363L744.5 363" stroke="#404040" stroke-width="4"/>
<path d="M641.5 303V238.5" stroke="#404040" stroke-width="4"/>
<path d="M641.8 287C650.526 287 657.6 294.074 657.6 302.8C657.6 311.526 650.526 318.6 641.8 318.6C633.074 318.6 626 311.526 626 302.8C626 294.074 633.074 287 641.8 287Z" fill="#4DD6D6" stroke="#404040" stroke-width="4" stroke-miterlimit="10"/>
<path d="M591.8 287C600.526 287 607.6 294.074 607.6 302.8C607.6 311.526 600.526 318.6 591.8 318.6C583.074 318.6 576 311.526 576 302.8C576 294.074 583.074 287 591.8 287Z" fill="#4DD6D6" stroke="#404040" stroke-width="4" stroke-miterlimit="10"/>
<path d="M69.5 361H18" stroke="#CCCCCC" stroke-width="4" stroke-linecap="round" stroke-linejoin="round" stroke-dasharray="1 10"/>
<path d="M19.6955 239C19.6955 239 -1.79869 239 47.1881 239C96.1748 239 55.1859 363 94.6753 363H744" stroke="#404040" stroke-width="4"/>
<path d="M743.8 377.6C752.526 377.6 759.6 370.526 759.6 361.8C759.6 353.074 752.526 346 743.8 346C735.074 346 728 353.074 728 361.8C728 370.526 735.074 377.6 743.8 377.6Z" fill="#B18BE8" stroke="#404040" stroke-width="4" stroke-miterlimit="10"/>
<path d="M502.8 378.6C511.526 378.6 518.6 371.526 518.6 362.8C518.6 354.074 511.526 347 502.8 347C494.074 347 487 354.074 487 362.8C487 371.526 494.074 378.6 502.8 378.6Z" fill="#B18BE8" stroke="#404040" stroke-width="4" stroke-miterlimit="10"/>
<path d="M321.8 377.6C330.526 377.6 337.6 370.526 337.6 361.8C337.6 353.074 330.526 346 321.8 346C313.074 346 306 353.074 306 361.8C306 370.526 313.074 377.6 321.8 377.6Z" fill="#B18BE8" stroke="#404040" stroke-width="4" stroke-miterlimit="10"/>
<path d="M185.8 377.6C194.526 377.6 201.6 370.526 201.6 361.8C201.6 353.074 194.526 346 185.8 346C177.074 346 170 353.074 170 361.8C170 370.526 177.074 377.6 185.8 377.6Z" fill="#B18BE8" stroke="#404040" stroke-width="4" stroke-miterlimit="10"/>
<path d="M124.8 377.6C133.526 377.6 140.6 370.526 140.6 361.8C140.6 353.074 133.526 346 124.8 346C116.074 346 109 353.074 109 361.8C109 370.526 116.074 377.6 124.8 377.6Z" fill="#B18BE8" stroke="#404040" stroke-width="4" stroke-miterlimit="10"/>
<path d="M741 239H675" stroke="#CCCCCC" stroke-width="4" stroke-linecap="round" stroke-linejoin="round" stroke-dasharray="1 10"/>
<path d="M17.5 239H321.5H642" stroke="#404040" stroke-width="4"/>
<path d="M641.8 253.6C650.526 253.6 657.6 246.526 657.6 237.8C657.6 229.074 650.526 222 641.8 222C633.074 222 626 229.074 626 237.8C626 246.526 633.074 253.6 641.8 253.6Z" fill="#B3E3FF" stroke="#404040" stroke-width="4" stroke-miterlimit="10"/>
<path d="M320.8 253.6C329.526 253.6 336.6 246.526 336.6 237.8C336.6 229.074 329.526 222 320.8 222C312.074 222 305 229.074 305 237.8C305 246.526 312.074 253.6 320.8 253.6Z" fill="#B3E3FF" stroke="#404040" stroke-width="4" stroke-miterlimit="10"/>
<path d="M17.8 253.6C26.5261 253.6 33.6 246.526 33.6 237.8C33.6 229.074 26.5261 222 17.8 222C9.0739 222 2 229.074 2 237.8C2 246.526 9.0739 253.6 17.8 253.6Z" fill="#B3E3FF" stroke="#404040" stroke-width="4" stroke-miterlimit="10"/>
<path d="M650.3 195.1L642.2 203.3L634 195.1M642.2 201.6V184V201.6Z" stroke="#404040" stroke-width="4" stroke-miterlimit="10" stroke-linecap="round" stroke-linejoin="round"/>
<path d="M329.3 195.1L321.2 203.3L313 195.1M321.2 201.6V184V201.6Z" stroke="#404040" stroke-width="4" stroke-miterlimit="10" stroke-linecap="round" stroke-linejoin="round"/>
<path d="M79.3 195.1L71.2 203.3L63 195.1M71.2 201.6V184V201.6Z" stroke="#404040" stroke-width="4" stroke-miterlimit="10" stroke-linecap="round" stroke-linejoin="round"/>
<path d="M621 137H663V169H621V137Z" fill="#B3E3FF" stroke="#404040" stroke-width="4" stroke-miterlimit="10" stroke-linecap="round" stroke-linejoin="round"/>
<path d="M634.61 155.776L636.482 150.388H637.934L635.414 157H633.782L631.274 150.388H632.738L634.61 155.776ZM638.608 149.5V148.252H641.104V157H639.724V149.5H638.608ZM643.716 157.084C643.468 157.084 643.26 157 643.092 156.832C642.924 156.664 642.84 156.456 642.84 156.208C642.84 155.96 642.924 155.752 643.092 155.584C643.26 155.416 643.468 155.332 643.716 155.332C643.956 155.332 644.16 155.416 644.328 155.584C644.496 155.752 644.58 155.96 644.58 156.208C644.58 156.456 644.496 156.664 644.328 156.832C644.16 157 643.956 157.084 643.716 157.084ZM645.878 152.512C645.878 151.128 646.11 150.048 646.574 149.272C647.046 148.488 647.854 148.096 648.998 148.096C650.142 148.096 650.946 148.488 651.41 149.272C651.882 150.048 652.118 151.128 652.118 152.512C652.118 153.912 651.882 155.008 651.41 155.8C650.946 156.584 650.142 156.976 648.998 156.976C647.854 156.976 647.046 156.584 646.574 155.8C646.11 155.008 645.878 153.912 645.878 152.512ZM650.774 152.512C650.774 151.864 650.73 151.316 650.642 150.868C650.562 150.42 650.394 150.056 650.138 149.776C649.882 149.488 649.502 149.344 648.998 149.344C648.494 149.344 648.114 149.488 647.858 149.776C647.602 150.056 647.43 150.42 647.342 150.868C647.262 151.316 647.222 151.864 647.222 152.512C647.222 153.184 647.262 153.748 647.342 154.204C647.422 154.66 647.59 155.028 647.846 155.308C648.11 155.588 648.494 155.728 648.998 155.728C649.502 155.728 649.882 155.588 650.138 155.308C650.402 155.028 650.574 154.66 650.654 154.204C650.734 153.748 650.774 153.184 650.774 152.512Z" fill="black"/>
<path d="M300 137H342V169H300V137Z" fill="#B3E3FF" stroke="#404040" stroke-width="4" stroke-miterlimit="10" stroke-linecap="round" stroke-linejoin="round"/>
<path d="M312.245 155.776L314.117 150.388H315.569L313.049 157H311.417L308.909 150.388H310.373L312.245 155.776ZM316.423 152.512C316.423 151.128 316.655 150.048 317.119 149.272C317.591 148.488 318.399 148.096 319.543 148.096C320.687 148.096 321.491 148.488 321.955 149.272C322.427 150.048 322.663 151.128 322.663 152.512C322.663 153.912 322.427 155.008 321.955 155.8C321.491 156.584 320.687 156.976 319.543 156.976C318.399 156.976 317.591 156.584 317.119 155.8C316.655 155.008 316.423 153.912 316.423 152.512ZM321.319 152.512C321.319 151.864 321.275 151.316 321.187 150.868C321.107 150.42 320.939 150.056 320.683 149.776C320.427 149.488 320.047 149.344 319.543 149.344C319.039 149.344 318.659 149.488 318.403 149.776C318.147 150.056 317.975 150.42 317.887 150.868C317.807 151.316 317.767 151.864 317.767 152.512C317.767 153.184 317.807 153.748 317.887 154.204C317.967 154.66 318.135 155.028 318.391 155.308C318.655 155.588 319.039 155.728 319.543 155.728C320.047 155.728 320.427 155.588 320.683 155.308C320.947 155.028 321.119 154.66 321.199 154.204C321.279 153.748 321.319 153.184 321.319 152.512ZM324.843 157.084C324.595 157.084 324.387 157 324.219 156.832C324.051 156.664 323.967 156.456 323.967 156.208C323.967 155.96 324.051 155.752 324.219 155.584C324.387 155.416 324.595 155.332 324.843 155.332C325.083 155.332 325.287 155.416 325.455 155.584C325.623 155.752 325.707 155.96 325.707 156.208C325.707 156.456 325.623 156.664 325.455 156.832C325.287 157 325.083 157.084 324.843 157.084ZM327.761 155.14C328.529 154.476 329.133 153.932 329.573 153.508C330.021 153.076 330.393 152.628 330.689 152.164C330.985 151.7 331.133 151.236 331.133 150.772C331.133 150.292 331.017 149.916 330.785 149.644C330.561 149.372 330.205 149.236 329.717 149.236C329.245 149.236 328.877 149.388 328.613 149.692C328.357 149.988 328.221 150.388 328.205 150.892H326.885C326.909 149.98 327.181 149.284 327.701 148.804C328.229 148.316 328.897 148.072 329.705 148.072C330.577 148.072 331.257 148.312 331.745 148.792C332.241 149.272 332.489 149.912 332.489 150.712C332.489 151.288 332.341 151.844 332.045 152.38C331.757 152.908 331.409 153.384 331.001 153.808C330.601 154.224 330.089 154.708 329.465 155.26L328.925 155.74H332.729V156.88H326.897V155.884L327.761 155.14Z" fill="black"/>
<path d="M50 135H92V167H50V135Z" fill="#B3E3FF" stroke="#404040" stroke-width="4" stroke-miterlimit="10" stroke-linecap="round" stroke-linejoin="round"/>
<path d="M63.6103 153.776L65.4823 148.388H66.9343L64.4143 155H62.7823L60.2743 148.388H61.7383L63.6103 153.776ZM67.7884 150.512C67.7884 149.128 68.0204 148.048 68.4844 147.272C68.9564 146.488 69.7644 146.096 70.9084 146.096C72.0524 146.096 72.8564 146.488 73.3204 147.272C73.7924 148.048 74.0284 149.128 74.0284 150.512C74.0284 151.912 73.7924 153.008 73.3204 153.8C72.8564 154.584 72.0524 154.976 70.9084 154.976C69.7644 154.976 68.9564 154.584 68.4844 153.8C68.0204 153.008 67.7884 151.912 67.7884 150.512ZM72.6844 150.512C72.6844 149.864 72.6404 149.316 72.5524 148.868C72.4724 148.42 72.3044 148.056 72.0484 147.776C71.7924 147.488 71.4124 147.344 70.9084 147.344C70.4044 147.344 70.0244 147.488 69.7684 147.776C69.5124 148.056 69.3404 148.42 69.2524 148.868C69.1724 149.316 69.1324 149.864 69.1324 150.512C69.1324 151.184 69.1724 151.748 69.2524 152.204C69.3324 152.66 69.5004 153.028 69.7564 153.308C70.0204 153.588 70.4044 153.728 70.9084 153.728C71.4124 153.728 71.7924 153.588 72.0484 153.308C72.3124 153.028 72.4844 152.66 72.5644 152.204C72.6444 151.748 72.6844 151.184 72.6844 150.512ZM76.2079 155.084C75.9599 155.084 75.7519 155 75.5839 154.832C75.4159 154.664 75.3319 154.456 75.3319 154.208C75.3319 153.96 75.4159 153.752 75.5839 153.584C75.7519 153.416 75.9599 153.332 76.2079 153.332C76.4479 153.332 76.6519 153.416 76.8199 153.584C76.9879 153.752 77.0719 153.96 77.0719 154.208C77.0719 154.456 76.9879 154.664 76.8199 154.832C76.6519 155 76.4479 155.084 76.2079 155.084ZM78.1904 147.5V146.252H80.6864V155H79.3064V147.5H78.1904Z" fill="black"/>
<path d="M2 2H98.2V52H2V2Z" fill="#B3E3FF" stroke="#404040" stroke-width="4" stroke-miterlimit="10" stroke-linecap="round" stroke-linejoin="round"/>
<path d="M38.8832 22.66V31H37.5152V25.288L34.9712 31H34.0232L31.4672 25.288V31H30.0992V22.66H31.5752L34.5032 29.2L37.4192 22.66H38.8832ZM40.2253 27.664C40.2253 27 40.3613 26.412 40.6333 25.9C40.9133 25.388 41.2893 24.992 41.7613 24.712C42.2413 24.424 42.7693 24.28 43.3453 24.28C43.8653 24.28 44.3173 24.384 44.7013 24.592C45.0933 24.792 45.4053 25.044 45.6373 25.348V24.388H47.0173V31H45.6373V30.016C45.4053 30.328 45.0893 30.588 44.6893 30.796C44.2893 31.004 43.8333 31.108 43.3213 31.108C42.7533 31.108 42.2333 30.964 41.7613 30.676C41.2893 30.38 40.9133 29.972 40.6333 29.452C40.3613 28.924 40.2253 28.328 40.2253 27.664ZM45.6373 27.688C45.6373 27.232 45.5413 26.836 45.3493 26.5C45.1653 26.164 44.9213 25.908 44.6173 25.732C44.3133 25.556 43.9853 25.468 43.6333 25.468C43.2813 25.468 42.9533 25.556 42.6493 25.732C42.3453 25.9 42.0973 26.152 41.9053 26.488C41.7213 26.816 41.6293 27.208 41.6293 27.664C41.6293 28.12 41.7213 28.52 41.9053 28.864C42.0973 29.208 42.3453 29.472 42.6493 29.656C42.9613 29.832 43.2893 29.92 43.6333 29.92C43.9853 29.92 44.3133 29.832 44.6173 29.656C44.9213 29.48 45.1653 29.224 45.3493 28.888C45.5413 28.544 45.6373 28.144 45.6373 27.688ZM51.2141 31.108C50.6941 31.108 50.2261 31.016 49.8101 30.832C49.4021 30.64 49.0781 30.384 48.8381 30.064C48.5981 29.736 48.4701 29.372 48.4541 28.972H49.8701C49.8941 29.252 50.0261 29.488 50.2661 29.68C50.5141 29.864 50.8221 29.956 51.1901 29.956C51.5741 29.956 51.8701 29.884 52.0781 29.74C52.2941 29.588 52.4021 29.396 52.4021 29.164C52.4021 28.916 52.2821 28.732 52.0421 28.612C51.8101 28.492 51.4381 28.36 50.9261 28.216C50.4301 28.08 50.0261 27.948 49.7141 27.82C49.4021 27.692 49.1301 27.496 48.8981 27.232C48.6741 26.968 48.5621 26.62 48.5621 26.188C48.5621 25.836 48.6661 25.516 48.8741 25.228C49.0821 24.932 49.3781 24.7 49.7621 24.532C50.1541 24.364 50.6021 24.28 51.1061 24.28C51.8581 24.28 52.4621 24.472 52.9181 24.856C53.3821 25.232 53.6301 25.748 53.6621 26.404H52.2941C52.2701 26.108 52.1501 25.872 51.9341 25.696C51.7181 25.52 51.4261 25.432 51.0581 25.432C50.6981 25.432 50.4221 25.5 50.2301 25.636C50.0381 25.772 49.9421 25.952 49.9421 26.176C49.9421 26.352 50.0061 26.5 50.1341 26.62C50.2621 26.74 50.4181 26.836 50.6021 26.908C50.7861 26.972 51.0581 27.056 51.4181 27.16C51.8981 27.288 52.2901 27.42 52.5941 27.556C52.9061 27.684 53.1741 27.876 53.3981 28.132C53.6221 28.388 53.7381 28.728 53.7461 29.152C53.7461 29.528 53.6421 29.864 53.4341 30.16C53.2261 30.456 52.9301 30.688 52.5461 30.856C52.1701 31.024 51.7261 31.108 51.2141 31.108ZM56.8202 25.504V29.164C56.8202 29.412 56.8762 29.592 56.9882 29.704C57.1082 29.808 57.3082 29.86 57.5882 29.86H58.4282V31H57.3482C56.7322 31 56.2602 30.856 55.9322 30.568C55.6042 30.28 55.4402 29.812 55.4402 29.164V25.504H54.6602V24.388H55.4402V22.744H56.8202V24.388H58.4282V25.504H56.8202ZM65.7491 27.532C65.7491 27.78 65.7331 28.004 65.7011 28.204H60.6491C60.6891 28.732 60.8851 29.156 61.2371 29.476C61.5891 29.796 62.0211 29.956 62.5331 29.956C63.2691 29.956 63.7891 29.648 64.0931 29.032H65.5691C65.3691 29.64 65.0051 30.14 64.4771 30.532C63.9571 30.916 63.3091 31.108 62.5331 31.108C61.9011 31.108 61.3331 30.968 60.8291 30.688C60.3331 30.4 59.9411 30 59.6531 29.488C59.3731 28.968 59.2331 28.368 59.2331 27.688C59.2331 27.008 59.3691 26.412 59.6411 25.9C59.9211 25.38 60.3091 24.98 60.8051 24.7C61.3091 24.42 61.8851 24.28 62.5331 24.28C63.1571 24.28 63.7131 24.416 64.2011 24.688C64.6891 24.96 65.0691 25.344 65.3411 25.84C65.6131 26.328 65.7491 26.892 65.7491 27.532ZM64.3211 27.1C64.3131 26.596 64.1331 26.192 63.7811 25.888C63.4291 25.584 62.9931 25.432 62.4731 25.432C62.0011 25.432 61.5971 25.584 61.2611 25.888C60.9251 26.184 60.7251 26.588 60.6611 27.1H64.3211ZM68.4633 25.348C68.6633 25.012 68.9273 24.752 69.2553 24.568C69.5913 24.376 69.9873 24.28 70.4433 24.28V25.696H70.0953C69.5593 25.696 69.1513 25.832 68.8713 26.104C68.5993 26.376 68.4633 26.848 68.4633 27.52V31H67.0953V24.388H68.4633V25.348Z" fill="#131313"/>
<path d="M146.2 2H242.4V52H146.2V2Z" fill="#4DD6D6" stroke="#404040" stroke-width="4" stroke-miterlimit="10" stroke-linecap="round" stroke-linejoin="round"/>
<path d="M175.678 31L173.758 27.664H172.714V31H171.346V22.66H174.226C174.866 22.66 175.406 22.772 175.846 22.996C176.294 23.22 176.626 23.52 176.842 23.896C177.066 24.272 177.178 24.692 177.178 25.156C177.178 25.7 177.018 26.196 176.698 26.644C176.386 27.084 175.902 27.384 175.246 27.544L177.31 31H175.678ZM172.714 26.572H174.226C174.738 26.572 175.122 26.444 175.378 26.188C175.642 25.932 175.774 25.588 175.774 25.156C175.774 24.724 175.646 24.388 175.39 24.148C175.134 23.9 174.746 23.776 174.226 23.776H172.714V26.572ZM184.988 27.532C184.988 27.78 184.972 28.004 184.94 28.204H179.888C179.928 28.732 180.124 29.156 180.476 29.476C180.828 29.796 181.26 29.956 181.772 29.956C182.508 29.956 183.028 29.648 183.332 29.032H184.808C184.608 29.64 184.244 30.14 183.716 30.532C183.196 30.916 182.548 31.108 181.772 31.108C181.14 31.108 180.572 30.968 180.068 30.688C179.572 30.4 179.18 30 178.892 29.488C178.612 28.968 178.472 28.368 178.472 27.688C178.472 27.008 178.608 26.412 178.88 25.9C179.16 25.38 179.548 24.98 180.044 24.7C180.548 24.42 181.124 24.28 181.772 24.28C182.396 24.28 182.952 24.416 183.44 24.688C183.928 24.96 184.308 25.344 184.58 25.84C184.852 26.328 184.988 26.892 184.988 27.532ZM183.56 27.1C183.552 26.596 183.372 26.192 183.02 25.888C182.668 25.584 182.232 25.432 181.712 25.432C181.24 25.432 180.836 25.584 180.5 25.888C180.164 26.184 179.964 26.588 179.9 27.1H183.56ZM187.702 22.12V31H186.334V22.12H187.702ZM195.558 27.532C195.558 27.78 195.542 28.004 195.51 28.204H190.458C190.498 28.732 190.694 29.156 191.046 29.476C191.398 29.796 191.83 29.956 192.342 29.956C193.078 29.956 193.598 29.648 193.902 29.032H195.378C195.178 29.64 194.814 30.14 194.286 30.532C193.766 30.916 193.118 31.108 192.342 31.108C191.71 31.108 191.142 30.968 190.638 30.688C190.142 30.4 189.75 30 189.462 29.488C189.182 28.968 189.042 28.368 189.042 27.688C189.042 27.008 189.178 26.412 189.45 25.9C189.73 25.38 190.118 24.98 190.614 24.7C191.118 24.42 191.694 24.28 192.342 24.28C192.966 24.28 193.522 24.416 194.01 24.688C194.498 24.96 194.878 25.344 195.15 25.84C195.422 26.328 195.558 26.892 195.558 27.532ZM194.13 27.1C194.122 26.596 193.942 26.192 193.59 25.888C193.238 25.584 192.802 25.432 192.282 25.432C191.81 25.432 191.406 25.584 191.07 25.888C190.734 26.184 190.534 26.588 190.47 27.1H194.13ZM196.449 27.664C196.449 27 196.585 26.412 196.857 25.9C197.137 25.388 197.513 24.992 197.985 24.712C198.465 24.424 198.993 24.28 199.569 24.28C200.089 24.28 200.541 24.384 200.925 24.592C201.317 24.792 201.629 25.044 201.861 25.348V24.388H203.241V31H201.861V30.016C201.629 30.328 201.313 30.588 200.913 30.796C200.513 31.004 200.057 31.108 199.545 31.108C198.977 31.108 198.457 30.964 197.985 30.676C197.513 30.38 197.137 29.972 196.857 29.452C196.585 28.924 196.449 28.328 196.449 27.664ZM201.861 27.688C201.861 27.232 201.765 26.836 201.573 26.5C201.389 26.164 201.145 25.908 200.841 25.732C200.537 25.556 200.209 25.468 199.857 25.468C199.505 25.468 199.177 25.556 198.873 25.732C198.569 25.9 198.321 26.152 198.129 26.488C197.945 26.816 197.853 27.208 197.853 27.664C197.853 28.12 197.945 28.52 198.129 28.864C198.321 29.208 198.569 29.472 198.873 29.656C199.185 29.832 199.513 29.92 199.857 29.92C200.209 29.92 200.537 29.832 200.841 29.656C201.145 29.48 201.389 29.224 201.573 28.888C201.765 28.544 201.861 28.144 201.861 27.688ZM207.437 31.108C206.917 31.108 206.449 31.016 206.033 30.832C205.625 30.64 205.301 30.384 205.061 30.064C204.821 29.736 204.693 29.372 204.677 28.972H206.093C206.117 29.252 206.249 29.488 206.489 29.68C206.737 29.864 207.045 29.956 207.413 29.956C207.797 29.956 208.093 29.884 208.301 29.74C208.517 29.588 208.625 29.396 208.625 29.164C208.625 28.916 208.505 28.732 208.265 28.612C208.033 28.492 207.661 28.36 207.149 28.216C206.653 28.08 206.249 27.948 205.937 27.82C205.625 27.692 205.353 27.496 205.121 27.232C204.897 26.968 204.785 26.62 204.785 26.188C204.785 25.836 204.889 25.516 205.097 25.228C205.305 24.932 205.601 24.7 205.985 24.532C206.377 24.364 206.825 24.28 207.329 24.28C208.081 24.28 208.685 24.472 209.141 24.856C209.605 25.232 209.853 25.748 209.885 26.404H208.517C208.493 26.108 208.373 25.872 208.157 25.696C207.941 25.52 207.649 25.432 207.281 25.432C206.921 25.432 206.645 25.5 206.453 25.636C206.261 25.772 206.165 25.952 206.165 26.176C206.165 26.352 206.229 26.5 206.357 26.62C206.485 26.74 206.641 26.836 206.825 26.908C207.009 26.972 207.281 27.056 207.641 27.16C208.121 27.288 208.513 27.42 208.817 27.556C209.129 27.684 209.397 27.876 209.621 28.132C209.845 28.388 209.961 28.728 209.969 29.152C209.969 29.528 209.865 29.864 209.657 30.16C209.449 30.456 209.153 30.688 208.769 30.856C208.393 31.024 207.949 31.108 207.437 31.108ZM217.508 27.532C217.508 27.78 217.492 28.004 217.46 28.204H212.408C212.448 28.732 212.644 29.156 212.996 29.476C213.348 29.796 213.78 29.956 214.292 29.956C215.028 29.956 215.548 29.648 215.852 29.032H217.328C217.128 29.64 216.764 30.14 216.236 30.532C215.716 30.916 215.068 31.108 214.292 31.108C213.66 31.108 213.092 30.968 212.588 30.688C212.092 30.4 211.7 30 211.412 29.488C211.132 28.968 210.992 28.368 210.992 27.688C210.992 27.008 211.128 26.412 211.4 25.9C211.68 25.38 212.068 24.98 212.564 24.7C213.068 24.42 213.644 24.28 214.292 24.28C214.916 24.28 215.472 24.416 215.96 24.688C216.448 24.96 216.828 25.344 217.1 25.84C217.372 26.328 217.508 26.892 217.508 27.532ZM216.08 27.1C216.072 26.596 215.892 26.192 215.54 25.888C215.188 25.584 214.752 25.432 214.232 25.432C213.76 25.432 213.356 25.584 213.02 25.888C212.684 26.184 212.484 26.588 212.42 27.1H216.08Z" fill="#131313"/>
<path d="M290.4 2H386.6V52H290.4V2Z" fill="#B18BE8" stroke="#404040" stroke-width="4" stroke-miterlimit="10" stroke-linecap="round" stroke-linejoin="round"/>
<path d="M332.898 31H331.53L327.414 24.772V31H326.046V22.648H327.414L331.53 28.864V22.648H332.898V31ZM340.755 27.532C340.755 27.78 340.739 28.004 340.707 28.204H335.655C335.695 28.732 335.891 29.156 336.243 29.476C336.595 29.796 337.027 29.956 337.539 29.956C338.275 29.956 338.795 29.648 339.099 29.032H340.575C340.375 29.64 340.011 30.14 339.483 30.532C338.963 30.916 338.315 31.108 337.539 31.108C336.907 31.108 336.339 30.968 335.835 30.688C335.339 30.4 334.947 30 334.659 29.488C334.379 28.968 334.239 28.368 334.239 27.688C334.239 27.008 334.375 26.412 334.647 25.9C334.927 25.38 335.315 24.98 335.811 24.7C336.315 24.42 336.891 24.28 337.539 24.28C338.163 24.28 338.719 24.416 339.207 24.688C339.695 24.96 340.075 25.344 340.347 25.84C340.619 26.328 340.755 26.892 340.755 27.532ZM339.327 27.1C339.319 26.596 339.139 26.192 338.787 25.888C338.435 25.584 337.999 25.432 337.479 25.432C337.007 25.432 336.603 25.584 336.267 25.888C335.931 26.184 335.731 26.588 335.667 27.1H339.327ZM344.933 27.652L347.069 31H345.521L344.093 28.756L342.749 31H341.321L343.457 27.748L341.321 24.388H342.869L344.297 26.632L345.641 24.388H347.069L344.933 27.652ZM349.685 25.504V29.164C349.685 29.412 349.741 29.592 349.853 29.704C349.973 29.808 350.173 29.86 350.453 29.86H351.293V31H350.213C349.597 31 349.125 30.856 348.797 30.568C348.469 30.28 348.305 29.812 348.305 29.164V25.504H347.525V24.388H348.305V22.744H349.685V24.388H351.293V25.504H349.685Z" fill="#131313"/>
<path d="M434.6 2H530.8V52H434.6V2Z" fill="#55FFC2" stroke="#404040" stroke-width="4" stroke-miterlimit="10" stroke-linecap="round" stroke-linejoin="round"/>
<path d="M465.416 22.66V23.776H461.876V26.236H464.636V27.352H461.876V31H460.508V22.66H465.416ZM472.744 27.532C472.744 27.78 472.728 28.004 472.696 28.204H467.644C467.684 28.732 467.88 29.156 468.232 29.476C468.584 29.796 469.016 29.956 469.528 29.956C470.264 29.956 470.784 29.648 471.088 29.032H472.564C472.364 29.64 472 30.14 471.472 30.532C470.952 30.916 470.304 31.108 469.528 31.108C468.896 31.108 468.328 30.968 467.824 30.688C467.328 30.4 466.936 30 466.648 29.488C466.368 28.968 466.228 28.368 466.228 27.688C466.228 27.008 466.364 26.412 466.636 25.9C466.916 25.38 467.304 24.98 467.8 24.7C468.304 24.42 468.88 24.28 469.528 24.28C470.152 24.28 470.708 24.416 471.196 24.688C471.684 24.96 472.064 25.344 472.336 25.84C472.608 26.328 472.744 26.892 472.744 27.532ZM471.316 27.1C471.308 26.596 471.128 26.192 470.776 25.888C470.424 25.584 469.988 25.432 469.468 25.432C468.996 25.432 468.592 25.584 468.256 25.888C467.92 26.184 467.72 26.588 467.656 27.1H471.316ZM473.634 27.664C473.634 27 473.77 26.412 474.042 25.9C474.322 25.388 474.698 24.992 475.17 24.712C475.65 24.424 476.178 24.28 476.754 24.28C477.274 24.28 477.726 24.384 478.11 24.592C478.502 24.792 478.814 25.044 479.046 25.348V24.388H480.426V31H479.046V30.016C478.814 30.328 478.498 30.588 478.098 30.796C477.698 31.004 477.242 31.108 476.73 31.108C476.162 31.108 475.642 30.964 475.17 30.676C474.698 30.38 474.322 29.972 474.042 29.452C473.77 28.924 473.634 28.328 473.634 27.664ZM479.046 27.688C479.046 27.232 478.95 26.836 478.758 26.5C478.574 26.164 478.33 25.908 478.026 25.732C477.722 25.556 477.394 25.468 477.042 25.468C476.69 25.468 476.362 25.556 476.058 25.732C475.754 25.9 475.506 26.152 475.314 26.488C475.13 26.816 475.038 27.208 475.038 27.664C475.038 28.12 475.13 28.52 475.314 28.864C475.506 29.208 475.754 29.472 476.058 29.656C476.37 29.832 476.698 29.92 477.042 29.92C477.394 29.92 477.722 29.832 478.026 29.656C478.33 29.48 478.574 29.224 478.758 28.888C478.95 28.544 479.046 28.144 479.046 27.688ZM483.819 25.504V29.164C483.819 29.412 483.875 29.592 483.987 29.704C484.107 29.808 484.307 29.86 484.587 29.86H485.427V31H484.347C483.731 31 483.259 30.856 482.931 30.568C482.603 30.28 482.439 29.812 482.439 29.164V25.504H481.659V24.388H482.439V22.744H483.819V24.388H485.427V25.504H483.819ZM492.675 24.388V31H491.307V30.22C491.091 30.492 490.807 30.708 490.455 30.868C490.111 31.02 489.743 31.096 489.351 31.096C488.831 31.096 488.363 30.988 487.947 30.772C487.539 30.556 487.215 30.236 486.975 29.812C486.743 29.388 486.627 28.876 486.627 28.276V24.388H487.983V28.072C487.983 28.664 488.131 29.12 488.427 29.44C488.723 29.752 489.127 29.908 489.639 29.908C490.151 29.908 490.555 29.752 490.851 29.44C491.155 29.12 491.307 28.664 491.307 28.072V24.388H492.675ZM495.848 25.348C496.048 25.012 496.312 24.752 496.64 24.568C496.976 24.376 497.372 24.28 497.828 24.28V25.696H497.48C496.944 25.696 496.536 25.832 496.256 26.104C495.984 26.376 495.848 26.848 495.848 27.52V31H494.48V24.388H495.848V25.348ZM505.146 27.532C505.146 27.78 505.13 28.004 505.098 28.204H500.046C500.086 28.732 500.282 29.156 500.634 29.476C500.986 29.796 501.418 29.956 501.93 29.956C502.666 29.956 503.186 29.648 503.49 29.032H504.966C504.766 29.64 504.402 30.14 503.874 30.532C503.354 30.916 502.706 31.108 501.93 31.108C501.298 31.108 500.73 30.968 500.226 30.688C499.73 30.4 499.338 30 499.05 29.488C498.77 28.968 498.63 28.368 498.63 27.688C498.63 27.008 498.766 26.412 499.038 25.9C499.318 25.38 499.706 24.98 500.202 24.7C500.706 24.42 501.282 24.28 501.93 24.28C502.554 24.28 503.11 24.416 503.598 24.688C504.086 24.96 504.466 25.344 504.738 25.84C505.01 26.328 505.146 26.892 505.146 27.532ZM503.718 27.1C503.71 26.596 503.53 26.192 503.178 25.888C502.826 25.584 502.39 25.432 501.87 25.432C501.398 25.432 500.994 25.584 500.658 25.888C500.322 26.184 500.122 26.588 500.058 27.1H503.718Z" fill="#131313"/>
<path d="M578.8 2H675V52H578.8V2Z" fill="#55FFC2" stroke="#404040" stroke-width="4" stroke-miterlimit="10" stroke-linecap="round" stroke-linejoin="round"/>
<path d="M609.616 22.66V23.776H606.076V26.236H608.836V27.352H606.076V31H604.708V22.66H609.616ZM616.944 27.532C616.944 27.78 616.928 28.004 616.896 28.204H611.844C611.884 28.732 612.08 29.156 612.432 29.476C612.784 29.796 613.216 29.956 613.728 29.956C614.464 29.956 614.984 29.648 615.288 29.032H616.764C616.564 29.64 616.2 30.14 615.672 30.532C615.152 30.916 614.504 31.108 613.728 31.108C613.096 31.108 612.528 30.968 612.024 30.688C611.528 30.4 611.136 30 610.848 29.488C610.568 28.968 610.428 28.368 610.428 27.688C610.428 27.008 610.564 26.412 610.836 25.9C611.116 25.38 611.504 24.98 612 24.7C612.504 24.42 613.08 24.28 613.728 24.28C614.352 24.28 614.908 24.416 615.396 24.688C615.884 24.96 616.264 25.344 616.536 25.84C616.808 26.328 616.944 26.892 616.944 27.532ZM615.516 27.1C615.508 26.596 615.328 26.192 614.976 25.888C614.624 25.584 614.188 25.432 613.668 25.432C613.196 25.432 612.792 25.584 612.456 25.888C612.12 26.184 611.92 26.588 611.856 27.1H615.516ZM617.834 27.664C617.834 27 617.97 26.412 618.242 25.9C618.522 25.388 618.898 24.992 619.37 24.712C619.85 24.424 620.378 24.28 620.954 24.28C621.474 24.28 621.926 24.384 622.31 24.592C622.702 24.792 623.014 25.044 623.246 25.348V24.388H624.626V31H623.246V30.016C623.014 30.328 622.698 30.588 622.298 30.796C621.898 31.004 621.442 31.108 620.93 31.108C620.362 31.108 619.842 30.964 619.37 30.676C618.898 30.38 618.522 29.972 618.242 29.452C617.97 28.924 617.834 28.328 617.834 27.664ZM623.246 27.688C623.246 27.232 623.15 26.836 622.958 26.5C622.774 26.164 622.53 25.908 622.226 25.732C621.922 25.556 621.594 25.468 621.242 25.468C620.89 25.468 620.562 25.556 620.258 25.732C619.954 25.9 619.706 26.152 619.514 26.488C619.33 26.816 619.238 27.208 619.238 27.664C619.238 28.12 619.33 28.52 619.514 28.864C619.706 29.208 619.954 29.472 620.258 29.656C620.57 29.832 620.898 29.92 621.242 29.92C621.594 29.92 621.922 29.832 622.226 29.656C622.53 29.48 622.774 29.224 622.958 28.888C623.15 28.544 623.246 28.144 623.246 27.688ZM628.019 25.504V29.164C628.019 29.412 628.075 29.592 628.187 29.704C628.307 29.808 628.507 29.86 628.787 29.86H629.627V31H628.547C627.931 31 627.459 30.856 627.131 30.568C626.803 30.28 626.639 29.812 626.639 29.164V25.504H625.859V24.388H626.639V22.744H628.019V24.388H629.627V25.504H628.019ZM636.875 24.388V31H635.507V30.22C635.291 30.492 635.007 30.708 634.655 30.868C634.311 31.02 633.943 31.096 633.551 31.096C633.031 31.096 632.563 30.988 632.147 30.772C631.739 30.556 631.415 30.236 631.175 29.812C630.943 29.388 630.827 28.876 630.827 28.276V24.388H632.183V28.072C632.183 28.664 632.331 29.12 632.627 29.44C632.923 29.752 633.327 29.908 633.839 29.908C634.351 29.908 634.755 29.752 635.051 29.44C635.355 29.12 635.507 28.664 635.507 28.072V24.388H636.875ZM640.048 25.348C640.248 25.012 640.512 24.752 640.84 24.568C641.176 24.376 641.572 24.28 642.028 24.28V25.696H641.68C641.144 25.696 640.736 25.832 640.456 26.104C640.184 26.376 640.048 26.848 640.048 27.52V31H638.68V24.388H640.048V25.348ZM649.346 27.532C649.346 27.78 649.33 28.004 649.298 28.204H644.246C644.286 28.732 644.482 29.156 644.834 29.476C645.186 29.796 645.618 29.956 646.13 29.956C646.866 29.956 647.386 29.648 647.69 29.032H649.166C648.966 29.64 648.602 30.14 648.074 30.532C647.554 30.916 646.906 31.108 646.13 31.108C645.498 31.108 644.93 30.968 644.426 30.688C643.93 30.4 643.538 30 643.25 29.488C642.97 28.968 642.83 28.368 642.83 27.688C642.83 27.008 642.966 26.412 643.238 25.9C643.518 25.38 643.906 24.98 644.402 24.7C644.906 24.42 645.482 24.28 646.13 24.28C646.754 24.28 647.31 24.416 647.798 24.688C648.286 24.96 648.666 25.344 648.938 25.84C649.21 26.328 649.346 26.892 649.346 27.532ZM647.918 27.1C647.91 26.596 647.73 26.192 647.378 25.888C647.026 25.584 646.59 25.432 646.07 25.432C645.598 25.432 645.194 25.584 644.858 25.888C644.522 26.184 644.322 26.588 644.258 27.1H647.918Z" fill="#131313"/>
</svg>
