<svg width="822" height="560" viewBox="0 0 822 560" fill="none" xmlns="http://www.w3.org/2000/svg">
<path d="M751 486.5C667.037 486.5 539.963 486.5 456 486.5" stroke="#CCCCCC" stroke-width="4" stroke-linecap="round" stroke-linejoin="round" stroke-dasharray="1 10"/>
<path d="M141 486.5C177.437 486.5 206.927 486.5 235.5 486.5" stroke="#CCCCCC" stroke-width="4" stroke-linecap="round" stroke-linejoin="round" stroke-dasharray="1 10"/>
<path d="M18 486.5C54.4372 486.5 80.4273 486.5 109 486.5" stroke="#CCCCCC" stroke-width="4" stroke-linecap="round" stroke-linejoin="round" stroke-dasharray="1 10"/>
<path d="M175.185 426.5C175.185 426.5 169.685 426.5 218.685 426.5C267.685 426.5 226.185 486.5 265.685 486.5H419C468 486.5 426.5 426.5 466 426.5" stroke="#404040" stroke-width="4"/>
<path d="M371.8 500.1C380.526 500.1 387.6 493.026 387.6 484.3C387.6 475.574 380.526 468.5 371.8 468.5C363.074 468.5 356 475.574 356 484.3C356 493.026 363.074 500.1 371.8 500.1Z" fill="#55FFC2" stroke="#404040" stroke-width="4" stroke-miterlimit="10"/>
<path d="M321.8 500.1C330.526 500.1 337.6 493.026 337.6 484.3C337.6 475.574 330.526 468.5 321.8 468.5C313.074 468.5 306 475.574 306 484.3C306 493.026 313.074 500.1 321.8 500.1Z" fill="#55FFC2" stroke="#404040" stroke-width="4" stroke-miterlimit="10"/>
<path d="M752 541.5H410" stroke="#CCCCCC" stroke-width="4" stroke-linecap="round" stroke-linejoin="round" stroke-dasharray="1 10"/>
<path d="M91 541.5H18" stroke="#CCCCCC" stroke-width="4" stroke-linecap="round" stroke-linejoin="round" stroke-dasharray="1 10"/>
<path d="M125 425.5V541.5H372.5" stroke="#404040" stroke-width="4"/>
<path d="M371.8 557.1C380.526 557.1 387.6 550.026 387.6 541.3C387.6 532.574 380.526 525.5 371.8 525.5C363.074 525.5 356 532.574 356 541.3C356 550.026 363.074 557.1 371.8 557.1Z" fill="#55FFC2" stroke="#404040" stroke-width="4" stroke-miterlimit="10"/>
<path d="M321.8 557.1C330.526 557.1 337.6 550.026 337.6 541.3C337.6 532.574 330.526 525.5 321.8 525.5C313.074 525.5 306 532.574 306 541.3C306 550.026 313.074 557.1 321.8 557.1Z" fill="#55FFC2" stroke="#404040" stroke-width="4" stroke-miterlimit="10"/>
<path d="M227.8 557.1C236.526 557.1 243.6 550.026 243.6 541.3C243.6 532.574 236.526 525.5 227.8 525.5C219.074 525.5 212 532.574 212 541.3C212 550.026 219.074 557.1 227.8 557.1Z" fill="#55FFC2" stroke="#404040" stroke-width="4" stroke-miterlimit="10"/>
<path d="M124.8 557.1C133.526 557.1 140.6 550.026 140.6 541.3C140.6 532.574 133.526 525.5 124.8 525.5C116.074 525.5 109 532.574 109 541.3C109 550.026 116.074 557.1 124.8 557.1Z" fill="#55FFC2" stroke="#404040" stroke-width="4" stroke-miterlimit="10"/>
<path d="M716 366.5C726.574 366.5 732.794 366.5 741 366.5" stroke="#CCCCCC" stroke-width="4" stroke-linecap="round" stroke-linejoin="round" stroke-dasharray="1 10"/>
<path d="M532 366.5C448.037 366.5 175.463 366.5 91.5 366.5" stroke="#CCCCCC" stroke-width="4" stroke-linecap="round" stroke-linejoin="round" stroke-dasharray="1 10"/>
<path d="M17 366.5C27.8091 366.5 41.744 366.5 58 366.5" stroke="#CCCCCC" stroke-width="4" stroke-linecap="round" stroke-linejoin="round" stroke-dasharray="1 10"/>
<path d="M503 426.5C507.865 426.5 513.532 426.5 519 426.5C568 426.5 523.5 366.5 563 366.5H677C726 366.5 681.5 426.5 721 426.5L744.5 426.5" stroke="#404040" stroke-width="4"/>
<path d="M641.5 366.5V239" stroke="#404040" stroke-width="4"/>
<path d="M641.8 350.5C650.526 350.5 657.6 357.574 657.6 366.3C657.6 375.026 650.526 382.1 641.8 382.1C633.074 382.1 626 375.026 626 366.3C626 357.574 633.074 350.5 641.8 350.5Z" fill="#4DD6D6" stroke="#404040" stroke-width="4" stroke-miterlimit="10"/>
<path d="M591.8 350.5C600.526 350.5 607.6 357.574 607.6 366.3C607.6 375.026 600.526 382.1 591.8 382.1C583.074 382.1 576 375.026 576 366.3C576 357.574 583.074 350.5 591.8 350.5Z" fill="#4DD6D6" stroke="#404040" stroke-width="4" stroke-miterlimit="10"/>
<path d="M69.5 424.5H18" stroke="#CCCCCC" stroke-width="4" stroke-linecap="round" stroke-linejoin="round" stroke-dasharray="1 10"/>
<path d="M18 239.5C18 239.5 -1.98679 239.5 47 239.5C95.9867 239.5 55.1859 426.5 94.6752 426.5H744" stroke="#404040" stroke-width="4"/>
<path d="M743.8 441.1C752.526 441.1 759.6 434.026 759.6 425.3C759.6 416.574 752.526 409.5 743.8 409.5C735.074 409.5 728 416.574 728 425.3C728 434.026 735.074 441.1 743.8 441.1Z" fill="#B18BE8" stroke="#404040" stroke-width="4" stroke-miterlimit="10"/>
<path d="M502.8 442.1C511.526 442.1 518.6 435.026 518.6 426.3C518.6 417.574 511.526 410.5 502.8 410.5C494.074 410.5 487 417.574 487 426.3C487 435.026 494.074 442.1 502.8 442.1Z" fill="#B18BE8" stroke="#404040" stroke-width="4" stroke-miterlimit="10"/>
<path d="M321.8 441.1C330.526 441.1 337.6 434.026 337.6 425.3C337.6 416.574 330.526 409.5 321.8 409.5C313.074 409.5 306 416.574 306 425.3C306 434.026 313.074 441.1 321.8 441.1Z" fill="#B18BE8" stroke="#404040" stroke-width="4" stroke-miterlimit="10"/>
<path d="M185.8 441.1C194.526 441.1 201.6 434.026 201.6 425.3C201.6 416.574 194.526 409.5 185.8 409.5C177.074 409.5 170 416.574 170 425.3C170 434.026 177.074 441.1 185.8 441.1Z" fill="#B18BE8" stroke="#404040" stroke-width="4" stroke-miterlimit="10"/>
<path d="M124.8 441.1C133.526 441.1 140.6 434.026 140.6 425.3C140.6 416.574 133.526 409.5 124.8 409.5C116.074 409.5 109 416.574 109 425.3C109 434.026 116.074 441.1 124.8 441.1Z" fill="#B18BE8" stroke="#404040" stroke-width="4" stroke-miterlimit="10"/>
<path d="M19.5 240H46C81.5 240 59.5 300 93 300H159.5C195 300 173 240 206.5 240" stroke="#404040" stroke-width="4"/>
<path d="M656 300C676.365 300 703.826 300 741 300H656Z" stroke="#CCCCCC" stroke-width="4" stroke-linecap="round" stroke-linejoin="round" stroke-dasharray="1 10"/>
<path d="M626.5 300C542.537 300 269.963 300 186 300" stroke="#CCCCCC" stroke-width="4" stroke-linecap="round" stroke-linejoin="round" stroke-dasharray="1 10"/>
<path d="M14 300C24.8091 300 38.744 300 55 300" stroke="#CCCCCC" stroke-width="4" stroke-linecap="round" stroke-linejoin="round" stroke-dasharray="1 10"/>
<path d="M124.8 315.6C133.526 315.6 140.6 308.526 140.6 299.8C140.6 291.074 133.526 284 124.8 284C116.074 284 109 291.074 109 299.8C109 308.526 116.074 315.6 124.8 315.6Z" fill="#FF7347" stroke="#404040" stroke-width="4" stroke-miterlimit="10"/>
<path d="M741 239H675" stroke="#CCCCCC" stroke-width="4" stroke-linecap="round" stroke-linejoin="round" stroke-dasharray="1 10"/>
<path d="M17.5 239H321.5H642" stroke="#404040" stroke-width="4"/>
<path d="M641.8 253.6C650.526 253.6 657.6 246.526 657.6 237.8C657.6 229.074 650.526 222 641.8 222C633.074 222 626 229.074 626 237.8C626 246.526 633.074 253.6 641.8 253.6Z" fill="#B3E3FF" stroke="#404040" stroke-width="4" stroke-miterlimit="10"/>
<path d="M320.8 253.6C329.526 253.6 336.6 246.526 336.6 237.8C336.6 229.074 329.526 222 320.8 222C312.074 222 305 229.074 305 237.8C305 246.526 312.074 253.6 320.8 253.6Z" fill="#B3E3FF" stroke="#404040" stroke-width="4" stroke-miterlimit="10"/>
<path d="M17.8 253.6C26.5261 253.6 33.6 246.526 33.6 237.8C33.6 229.074 26.5261 222 17.8 222C9.0739 222 2 229.074 2 237.8C2 246.526 9.0739 253.6 17.8 253.6Z" fill="#B3E3FF" stroke="#404040" stroke-width="4" stroke-miterlimit="10"/>
<path d="M650.3 195.1L642.2 203.3L634 195.1M642.2 201.6V184V201.6Z" stroke="#404040" stroke-width="4" stroke-miterlimit="10" stroke-linecap="round" stroke-linejoin="round"/>
<path d="M329.3 195.1L321.2 203.3L313 195.1M321.2 201.6V184V201.6Z" stroke="#404040" stroke-width="4" stroke-miterlimit="10" stroke-linecap="round" stroke-linejoin="round"/>
<path d="M79.3 195.1L71.2 203.3L63 195.1M71.2 201.6V184V201.6Z" stroke="#404040" stroke-width="4" stroke-miterlimit="10" stroke-linecap="round" stroke-linejoin="round"/>
<path d="M621 137H663V169H621V137Z" fill="#B3E3FF" stroke="#404040" stroke-width="4" stroke-miterlimit="10" stroke-linecap="round" stroke-linejoin="round"/>
<path d="M634.61 155.776L636.482 150.388H637.934L635.414 157H633.782L631.274 150.388H632.738L634.61 155.776ZM638.608 149.5V148.252H641.104V157H639.724V149.5H638.608ZM643.716 157.084C643.468 157.084 643.26 157 643.092 156.832C642.924 156.664 642.84 156.456 642.84 156.208C642.84 155.96 642.924 155.752 643.092 155.584C643.26 155.416 643.468 155.332 643.716 155.332C643.956 155.332 644.16 155.416 644.328 155.584C644.496 155.752 644.58 155.96 644.58 156.208C644.58 156.456 644.496 156.664 644.328 156.832C644.16 157 643.956 157.084 643.716 157.084ZM645.878 152.512C645.878 151.128 646.11 150.048 646.574 149.272C647.046 148.488 647.854 148.096 648.998 148.096C650.142 148.096 650.946 148.488 651.41 149.272C651.882 150.048 652.118 151.128 652.118 152.512C652.118 153.912 651.882 155.008 651.41 155.8C650.946 156.584 650.142 156.976 648.998 156.976C647.854 156.976 647.046 156.584 646.574 155.8C646.11 155.008 645.878 153.912 645.878 152.512ZM650.774 152.512C650.774 151.864 650.73 151.316 650.642 150.868C650.562 150.42 650.394 150.056 650.138 149.776C649.882 149.488 649.502 149.344 648.998 149.344C648.494 149.344 648.114 149.488 647.858 149.776C647.602 150.056 647.43 150.42 647.342 150.868C647.262 151.316 647.222 151.864 647.222 152.512C647.222 153.184 647.262 153.748 647.342 154.204C647.422 154.66 647.59 155.028 647.846 155.308C648.11 155.588 648.494 155.728 648.998 155.728C649.502 155.728 649.882 155.588 650.138 155.308C650.402 155.028 650.574 154.66 650.654 154.204C650.734 153.748 650.774 153.184 650.774 152.512Z" fill="black"/>
<path d="M300 137H342V169H300V137Z" fill="#B3E3FF" stroke="#404040" stroke-width="4" stroke-miterlimit="10" stroke-linecap="round" stroke-linejoin="round"/>
<path d="M312.245 155.776L314.117 150.388H315.569L313.049 157H311.417L308.909 150.388H310.373L312.245 155.776ZM316.423 152.512C316.423 151.128 316.655 150.048 317.119 149.272C317.591 148.488 318.399 148.096 319.543 148.096C320.687 148.096 321.491 148.488 321.955 149.272C322.427 150.048 322.663 151.128 322.663 152.512C322.663 153.912 322.427 155.008 321.955 155.8C321.491 156.584 320.687 156.976 319.543 156.976C318.399 156.976 317.591 156.584 317.119 155.8C316.655 155.008 316.423 153.912 316.423 152.512ZM321.319 152.512C321.319 151.864 321.275 151.316 321.187 150.868C321.107 150.42 320.939 150.056 320.683 149.776C320.427 149.488 320.047 149.344 319.543 149.344C319.039 149.344 318.659 149.488 318.403 149.776C318.147 150.056 317.975 150.42 317.887 150.868C317.807 151.316 317.767 151.864 317.767 152.512C317.767 153.184 317.807 153.748 317.887 154.204C317.967 154.66 318.135 155.028 318.391 155.308C318.655 155.588 319.039 155.728 319.543 155.728C320.047 155.728 320.427 155.588 320.683 155.308C320.947 155.028 321.119 154.66 321.199 154.204C321.279 153.748 321.319 153.184 321.319 152.512ZM324.843 157.084C324.595 157.084 324.387 157 324.219 156.832C324.051 156.664 323.967 156.456 323.967 156.208C323.967 155.96 324.051 155.752 324.219 155.584C324.387 155.416 324.595 155.332 324.843 155.332C325.083 155.332 325.287 155.416 325.455 155.584C325.623 155.752 325.707 155.96 325.707 156.208C325.707 156.456 325.623 156.664 325.455 156.832C325.287 157 325.083 157.084 324.843 157.084ZM327.761 155.14C328.529 154.476 329.133 153.932 329.573 153.508C330.021 153.076 330.393 152.628 330.689 152.164C330.985 151.7 331.133 151.236 331.133 150.772C331.133 150.292 331.017 149.916 330.785 149.644C330.561 149.372 330.205 149.236 329.717 149.236C329.245 149.236 328.877 149.388 328.613 149.692C328.357 149.988 328.221 150.388 328.205 150.892H326.885C326.909 149.98 327.181 149.284 327.701 148.804C328.229 148.316 328.897 148.072 329.705 148.072C330.577 148.072 331.257 148.312 331.745 148.792C332.241 149.272 332.489 149.912 332.489 150.712C332.489 151.288 332.341 151.844 332.045 152.38C331.757 152.908 331.409 153.384 331.001 153.808C330.601 154.224 330.089 154.708 329.465 155.26L328.925 155.74H332.729V156.88H326.897V155.884L327.761 155.14Z" fill="black"/>
<path d="M50 135H92V167H50V135Z" fill="#B3E3FF" stroke="#404040" stroke-width="4" stroke-miterlimit="10" stroke-linecap="round" stroke-linejoin="round"/>
<path d="M63.6103 153.776L65.4823 148.388H66.9343L64.4143 155H62.7823L60.2743 148.388H61.7383L63.6103 153.776ZM67.7884 150.512C67.7884 149.128 68.0204 148.048 68.4844 147.272C68.9564 146.488 69.7644 146.096 70.9084 146.096C72.0524 146.096 72.8564 146.488 73.3204 147.272C73.7924 148.048 74.0284 149.128 74.0284 150.512C74.0284 151.912 73.7924 153.008 73.3204 153.8C72.8564 154.584 72.0524 154.976 70.9084 154.976C69.7644 154.976 68.9564 154.584 68.4844 153.8C68.0204 153.008 67.7884 151.912 67.7884 150.512ZM72.6844 150.512C72.6844 149.864 72.6404 149.316 72.5524 148.868C72.4724 148.42 72.3044 148.056 72.0484 147.776C71.7924 147.488 71.4124 147.344 70.9084 147.344C70.4044 147.344 70.0244 147.488 69.7684 147.776C69.5124 148.056 69.3404 148.42 69.2524 148.868C69.1724 149.316 69.1324 149.864 69.1324 150.512C69.1324 151.184 69.1724 151.748 69.2524 152.204C69.3324 152.66 69.5004 153.028 69.7564 153.308C70.0204 153.588 70.4044 153.728 70.9084 153.728C71.4124 153.728 71.7924 153.588 72.0484 153.308C72.3124 153.028 72.4844 152.66 72.5644 152.204C72.6444 151.748 72.6844 151.184 72.6844 150.512ZM76.2079 155.084C75.9599 155.084 75.7519 155 75.5839 154.832C75.4159 154.664 75.3319 154.456 75.3319 154.208C75.3319 153.96 75.4159 153.752 75.5839 153.584C75.7519 153.416 75.9599 153.332 76.2079 153.332C76.4479 153.332 76.6519 153.416 76.8199 153.584C76.9879 153.752 77.0719 153.96 77.0719 154.208C77.0719 154.456 76.9879 154.664 76.8199 154.832C76.6519 155 76.4479 155.084 76.2079 155.084ZM78.1904 147.5V146.252H80.6864V155H79.3064V147.5H78.1904Z" fill="black"/>
<path d="M2 2H98.2V52H2V2Z" fill="#B3E3FF" stroke="#404040" stroke-width="4" stroke-miterlimit="10" stroke-linecap="round" stroke-linejoin="round"/>
<path d="M38.8832 22.66V31H37.5152V25.288L34.9712 31H34.0232L31.4672 25.288V31H30.0992V22.66H31.5752L34.5032 29.2L37.4192 22.66H38.8832ZM40.2253 27.664C40.2253 27 40.3613 26.412 40.6333 25.9C40.9133 25.388 41.2893 24.992 41.7613 24.712C42.2413 24.424 42.7693 24.28 43.3453 24.28C43.8653 24.28 44.3173 24.384 44.7013 24.592C45.0933 24.792 45.4053 25.044 45.6373 25.348V24.388H47.0173V31H45.6373V30.016C45.4053 30.328 45.0893 30.588 44.6893 30.796C44.2893 31.004 43.8333 31.108 43.3213 31.108C42.7533 31.108 42.2333 30.964 41.7613 30.676C41.2893 30.38 40.9133 29.972 40.6333 29.452C40.3613 28.924 40.2253 28.328 40.2253 27.664ZM45.6373 27.688C45.6373 27.232 45.5413 26.836 45.3493 26.5C45.1653 26.164 44.9213 25.908 44.6173 25.732C44.3133 25.556 43.9853 25.468 43.6333 25.468C43.2813 25.468 42.9533 25.556 42.6493 25.732C42.3453 25.9 42.0973 26.152 41.9053 26.488C41.7213 26.816 41.6293 27.208 41.6293 27.664C41.6293 28.12 41.7213 28.52 41.9053 28.864C42.0973 29.208 42.3453 29.472 42.6493 29.656C42.9613 29.832 43.2893 29.92 43.6333 29.92C43.9853 29.92 44.3133 29.832 44.6173 29.656C44.9213 29.48 45.1653 29.224 45.3493 28.888C45.5413 28.544 45.6373 28.144 45.6373 27.688ZM51.2141 31.108C50.6941 31.108 50.2261 31.016 49.8101 30.832C49.4021 30.64 49.0781 30.384 48.8381 30.064C48.5981 29.736 48.4701 29.372 48.4541 28.972H49.8701C49.8941 29.252 50.0261 29.488 50.2661 29.68C50.5141 29.864 50.8221 29.956 51.1901 29.956C51.5741 29.956 51.8701 29.884 52.0781 29.74C52.2941 29.588 52.4021 29.396 52.4021 29.164C52.4021 28.916 52.2821 28.732 52.0421 28.612C51.8101 28.492 51.4381 28.36 50.9261 28.216C50.4301 28.08 50.0261 27.948 49.7141 27.82C49.4021 27.692 49.1301 27.496 48.8981 27.232C48.6741 26.968 48.5621 26.62 48.5621 26.188C48.5621 25.836 48.6661 25.516 48.8741 25.228C49.0821 24.932 49.3781 24.7 49.7621 24.532C50.1541 24.364 50.6021 24.28 51.1061 24.28C51.8581 24.28 52.4621 24.472 52.9181 24.856C53.3821 25.232 53.6301 25.748 53.6621 26.404H52.2941C52.2701 26.108 52.1501 25.872 51.9341 25.696C51.7181 25.52 51.4261 25.432 51.0581 25.432C50.6981 25.432 50.4221 25.5 50.2301 25.636C50.0381 25.772 49.9421 25.952 49.9421 26.176C49.9421 26.352 50.0061 26.5 50.1341 26.62C50.2621 26.74 50.4181 26.836 50.6021 26.908C50.7861 26.972 51.0581 27.056 51.4181 27.16C51.8981 27.288 52.2901 27.42 52.5941 27.556C52.9061 27.684 53.1741 27.876 53.3981 28.132C53.6221 28.388 53.7381 28.728 53.7461 29.152C53.7461 29.528 53.6421 29.864 53.4341 30.16C53.2261 30.456 52.9301 30.688 52.5461 30.856C52.1701 31.024 51.7261 31.108 51.2141 31.108ZM56.8202 25.504V29.164C56.8202 29.412 56.8762 29.592 56.9882 29.704C57.1082 29.808 57.3082 29.86 57.5882 29.86H58.4282V31H57.3482C56.7322 31 56.2602 30.856 55.9322 30.568C55.6042 30.28 55.4402 29.812 55.4402 29.164V25.504H54.6602V24.388H55.4402V22.744H56.8202V24.388H58.4282V25.504H56.8202ZM65.7491 27.532C65.7491 27.78 65.7331 28.004 65.7011 28.204H60.6491C60.6891 28.732 60.8851 29.156 61.2371 29.476C61.5891 29.796 62.0211 29.956 62.5331 29.956C63.2691 29.956 63.7891 29.648 64.0931 29.032H65.5691C65.3691 29.64 65.0051 30.14 64.4771 30.532C63.9571 30.916 63.3091 31.108 62.5331 31.108C61.9011 31.108 61.3331 30.968 60.8291 30.688C60.3331 30.4 59.9411 30 59.6531 29.488C59.3731 28.968 59.2331 28.368 59.2331 27.688C59.2331 27.008 59.3691 26.412 59.6411 25.9C59.9211 25.38 60.3091 24.98 60.8051 24.7C61.3091 24.42 61.8851 24.28 62.5331 24.28C63.1571 24.28 63.7131 24.416 64.2011 24.688C64.6891 24.96 65.0691 25.344 65.3411 25.84C65.6131 26.328 65.7491 26.892 65.7491 27.532ZM64.3211 27.1C64.3131 26.596 64.1331 26.192 63.7811 25.888C63.4291 25.584 62.9931 25.432 62.4731 25.432C62.0011 25.432 61.5971 25.584 61.2611 25.888C60.9251 26.184 60.7251 26.588 60.6611 27.1H64.3211ZM68.4633 25.348C68.6633 25.012 68.9273 24.752 69.2553 24.568C69.5913 24.376 69.9873 24.28 70.4433 24.28V25.696H70.0953C69.5593 25.696 69.1513 25.832 68.8713 26.104C68.5993 26.376 68.4633 26.848 68.4633 27.52V31H67.0953V24.388H68.4633V25.348Z" fill="#131313"/>
<path d="M146.2 2H242.4V52H146.2V2Z" fill="#FF7347" stroke="#404040" stroke-width="4" stroke-miterlimit="10" stroke-linecap="round" stroke-linejoin="round"/>
<path d="M184.903 22.66V31H183.535V27.352H179.611V31H178.243V22.66H179.611V26.236H183.535V22.66H184.903ZM189.572 31.108C188.948 31.108 188.384 30.968 187.88 30.688C187.376 30.4 186.98 30 186.692 29.488C186.404 28.968 186.26 28.368 186.26 27.688C186.26 27.016 186.408 26.42 186.704 25.9C187 25.38 187.404 24.98 187.916 24.7C188.428 24.42 189 24.28 189.632 24.28C190.264 24.28 190.836 24.42 191.348 24.7C191.86 24.98 192.264 25.38 192.56 25.9C192.856 26.42 193.004 27.016 193.004 27.688C193.004 28.36 192.852 28.956 192.548 29.476C192.244 29.996 191.828 30.4 191.3 30.688C190.78 30.968 190.204 31.108 189.572 31.108ZM189.572 29.92C189.924 29.92 190.252 29.836 190.556 29.668C190.868 29.5 191.12 29.248 191.312 28.912C191.504 28.576 191.6 28.168 191.6 27.688C191.6 27.208 191.508 26.804 191.324 26.476C191.14 26.14 190.896 25.888 190.592 25.72C190.288 25.552 189.96 25.468 189.608 25.468C189.256 25.468 188.928 25.552 188.624 25.72C188.328 25.888 188.092 26.14 187.916 26.476C187.74 26.804 187.652 27.208 187.652 27.688C187.652 28.4 187.832 28.952 188.192 29.344C188.56 29.728 189.02 29.92 189.572 29.92ZM195.952 25.504V29.164C195.952 29.412 196.008 29.592 196.12 29.704C196.24 29.808 196.44 29.86 196.72 29.86H197.56V31H196.48C195.864 31 195.392 30.856 195.064 30.568C194.736 30.28 194.572 29.812 194.572 29.164V25.504H193.792V24.388H194.572V22.744H195.952V24.388H197.56V25.504H195.952ZM201.593 25.504H200.369V31H198.989V25.504H198.209V24.388H198.989V23.92C198.989 23.16 199.189 22.608 199.589 22.264C199.997 21.912 200.633 21.736 201.497 21.736V22.876C201.081 22.876 200.789 22.956 200.621 23.116C200.453 23.268 200.369 23.536 200.369 23.92V24.388H201.593V25.504ZM203.501 23.512C203.253 23.512 203.045 23.428 202.877 23.26C202.709 23.092 202.625 22.884 202.625 22.636C202.625 22.388 202.709 22.18 202.877 22.012C203.045 21.844 203.253 21.76 203.501 21.76C203.741 21.76 203.945 21.844 204.113 22.012C204.281 22.18 204.365 22.388 204.365 22.636C204.365 22.884 204.281 23.092 204.113 23.26C203.945 23.428 203.741 23.512 203.501 23.512ZM204.173 24.388V31H202.805V24.388H204.173ZM208.801 27.652L210.937 31H209.389L207.961 28.756L206.617 31H205.189L207.325 27.748L205.189 24.388H206.737L208.165 26.632L209.509 24.388H210.937L208.801 27.652Z" fill="#131313"/>
<path d="M290.4 2H386.6V52H290.4V2Z" fill="#4DD6D6" stroke="#404040" stroke-width="4" stroke-miterlimit="10" stroke-linecap="round" stroke-linejoin="round"/>
<path d="M319.878 31L317.958 27.664H316.914V31H315.546V22.66H318.426C319.066 22.66 319.606 22.772 320.046 22.996C320.494 23.22 320.826 23.52 321.042 23.896C321.266 24.272 321.378 24.692 321.378 25.156C321.378 25.7 321.218 26.196 320.898 26.644C320.586 27.084 320.102 27.384 319.446 27.544L321.51 31H319.878ZM316.914 26.572H318.426C318.938 26.572 319.322 26.444 319.578 26.188C319.842 25.932 319.974 25.588 319.974 25.156C319.974 24.724 319.846 24.388 319.59 24.148C319.334 23.9 318.946 23.776 318.426 23.776H316.914V26.572ZM329.188 27.532C329.188 27.78 329.172 28.004 329.14 28.204H324.088C324.128 28.732 324.324 29.156 324.676 29.476C325.028 29.796 325.46 29.956 325.972 29.956C326.708 29.956 327.228 29.648 327.532 29.032H329.008C328.808 29.64 328.444 30.14 327.916 30.532C327.396 30.916 326.748 31.108 325.972 31.108C325.34 31.108 324.772 30.968 324.268 30.688C323.772 30.4 323.38 30 323.092 29.488C322.812 28.968 322.672 28.368 322.672 27.688C322.672 27.008 322.808 26.412 323.08 25.9C323.36 25.38 323.748 24.98 324.244 24.7C324.748 24.42 325.324 24.28 325.972 24.28C326.596 24.28 327.152 24.416 327.64 24.688C328.128 24.96 328.508 25.344 328.78 25.84C329.052 26.328 329.188 26.892 329.188 27.532ZM327.76 27.1C327.752 26.596 327.572 26.192 327.22 25.888C326.868 25.584 326.432 25.432 325.912 25.432C325.44 25.432 325.036 25.584 324.7 25.888C324.364 26.184 324.164 26.588 324.1 27.1H327.76ZM331.902 22.12V31H330.534V22.12H331.902ZM339.758 27.532C339.758 27.78 339.742 28.004 339.71 28.204H334.658C334.698 28.732 334.894 29.156 335.246 29.476C335.598 29.796 336.03 29.956 336.542 29.956C337.278 29.956 337.798 29.648 338.102 29.032H339.578C339.378 29.64 339.014 30.14 338.486 30.532C337.966 30.916 337.318 31.108 336.542 31.108C335.91 31.108 335.342 30.968 334.838 30.688C334.342 30.4 333.95 30 333.662 29.488C333.382 28.968 333.242 28.368 333.242 27.688C333.242 27.008 333.378 26.412 333.65 25.9C333.93 25.38 334.318 24.98 334.814 24.7C335.318 24.42 335.894 24.28 336.542 24.28C337.166 24.28 337.722 24.416 338.21 24.688C338.698 24.96 339.078 25.344 339.35 25.84C339.622 26.328 339.758 26.892 339.758 27.532ZM338.33 27.1C338.322 26.596 338.142 26.192 337.79 25.888C337.438 25.584 337.002 25.432 336.482 25.432C336.01 25.432 335.606 25.584 335.27 25.888C334.934 26.184 334.734 26.588 334.67 27.1H338.33ZM340.649 27.664C340.649 27 340.785 26.412 341.057 25.9C341.337 25.388 341.713 24.992 342.185 24.712C342.665 24.424 343.193 24.28 343.769 24.28C344.289 24.28 344.741 24.384 345.125 24.592C345.517 24.792 345.829 25.044 346.061 25.348V24.388H347.441V31H346.061V30.016C345.829 30.328 345.513 30.588 345.113 30.796C344.713 31.004 344.257 31.108 343.745 31.108C343.177 31.108 342.657 30.964 342.185 30.676C341.713 30.38 341.337 29.972 341.057 29.452C340.785 28.924 340.649 28.328 340.649 27.664ZM346.061 27.688C346.061 27.232 345.965 26.836 345.773 26.5C345.589 26.164 345.345 25.908 345.041 25.732C344.737 25.556 344.409 25.468 344.057 25.468C343.705 25.468 343.377 25.556 343.073 25.732C342.769 25.9 342.521 26.152 342.329 26.488C342.145 26.816 342.053 27.208 342.053 27.664C342.053 28.12 342.145 28.52 342.329 28.864C342.521 29.208 342.769 29.472 343.073 29.656C343.385 29.832 343.713 29.92 344.057 29.92C344.409 29.92 344.737 29.832 345.041 29.656C345.345 29.48 345.589 29.224 345.773 28.888C345.965 28.544 346.061 28.144 346.061 27.688ZM351.637 31.108C351.117 31.108 350.649 31.016 350.233 30.832C349.825 30.64 349.501 30.384 349.261 30.064C349.021 29.736 348.893 29.372 348.877 28.972H350.293C350.317 29.252 350.449 29.488 350.689 29.68C350.937 29.864 351.245 29.956 351.613 29.956C351.997 29.956 352.293 29.884 352.501 29.74C352.717 29.588 352.825 29.396 352.825 29.164C352.825 28.916 352.705 28.732 352.465 28.612C352.233 28.492 351.861 28.36 351.349 28.216C350.853 28.08 350.449 27.948 350.137 27.82C349.825 27.692 349.553 27.496 349.321 27.232C349.097 26.968 348.985 26.62 348.985 26.188C348.985 25.836 349.089 25.516 349.297 25.228C349.505 24.932 349.801 24.7 350.185 24.532C350.577 24.364 351.025 24.28 351.529 24.28C352.281 24.28 352.885 24.472 353.341 24.856C353.805 25.232 354.053 25.748 354.085 26.404H352.717C352.693 26.108 352.573 25.872 352.357 25.696C352.141 25.52 351.849 25.432 351.481 25.432C351.121 25.432 350.845 25.5 350.653 25.636C350.461 25.772 350.365 25.952 350.365 26.176C350.365 26.352 350.429 26.5 350.557 26.62C350.685 26.74 350.841 26.836 351.025 26.908C351.209 26.972 351.481 27.056 351.841 27.16C352.321 27.288 352.713 27.42 353.017 27.556C353.329 27.684 353.597 27.876 353.821 28.132C354.045 28.388 354.161 28.728 354.169 29.152C354.169 29.528 354.065 29.864 353.857 30.16C353.649 30.456 353.353 30.688 352.969 30.856C352.593 31.024 352.149 31.108 351.637 31.108ZM361.708 27.532C361.708 27.78 361.692 28.004 361.66 28.204H356.608C356.648 28.732 356.844 29.156 357.196 29.476C357.548 29.796 357.98 29.956 358.492 29.956C359.228 29.956 359.748 29.648 360.052 29.032H361.528C361.328 29.64 360.964 30.14 360.436 30.532C359.916 30.916 359.268 31.108 358.492 31.108C357.86 31.108 357.292 30.968 356.788 30.688C356.292 30.4 355.9 30 355.612 29.488C355.332 28.968 355.192 28.368 355.192 27.688C355.192 27.008 355.328 26.412 355.6 25.9C355.88 25.38 356.268 24.98 356.764 24.7C357.268 24.42 357.844 24.28 358.492 24.28C359.116 24.28 359.672 24.416 360.16 24.688C360.648 24.96 361.028 25.344 361.3 25.84C361.572 26.328 361.708 26.892 361.708 27.532ZM360.28 27.1C360.272 26.596 360.092 26.192 359.74 25.888C359.388 25.584 358.952 25.432 358.432 25.432C357.96 25.432 357.556 25.584 357.22 25.888C356.884 26.184 356.684 26.588 356.62 27.1H360.28Z" fill="#131313"/>
<path d="M434.6 2H530.8V52H434.6V2Z" fill="#B18BE8" stroke="#404040" stroke-width="4" stroke-miterlimit="10" stroke-linecap="round" stroke-linejoin="round"/>
<path d="M477.098 31H475.73L471.614 24.772V31H470.246V22.648H471.614L475.73 28.864V22.648H477.098V31ZM484.955 27.532C484.955 27.78 484.939 28.004 484.907 28.204H479.855C479.895 28.732 480.091 29.156 480.443 29.476C480.795 29.796 481.227 29.956 481.739 29.956C482.475 29.956 482.995 29.648 483.299 29.032H484.775C484.575 29.64 484.211 30.14 483.683 30.532C483.163 30.916 482.515 31.108 481.739 31.108C481.107 31.108 480.539 30.968 480.035 30.688C479.539 30.4 479.147 30 478.859 29.488C478.579 28.968 478.439 28.368 478.439 27.688C478.439 27.008 478.575 26.412 478.847 25.9C479.127 25.38 479.515 24.98 480.011 24.7C480.515 24.42 481.091 24.28 481.739 24.28C482.363 24.28 482.919 24.416 483.407 24.688C483.895 24.96 484.275 25.344 484.547 25.84C484.819 26.328 484.955 26.892 484.955 27.532ZM483.527 27.1C483.519 26.596 483.339 26.192 482.987 25.888C482.635 25.584 482.199 25.432 481.679 25.432C481.207 25.432 480.803 25.584 480.467 25.888C480.131 26.184 479.931 26.588 479.867 27.1H483.527ZM489.133 27.652L491.269 31H489.721L488.293 28.756L486.949 31H485.521L487.657 27.748L485.521 24.388H487.069L488.497 26.632L489.841 24.388H491.269L489.133 27.652ZM493.885 25.504V29.164C493.885 29.412 493.941 29.592 494.053 29.704C494.173 29.808 494.373 29.86 494.653 29.86H495.493V31H494.413C493.797 31 493.325 30.856 492.997 30.568C492.669 30.28 492.505 29.812 492.505 29.164V25.504H491.725V24.388H492.505V22.744H493.885V24.388H495.493V25.504H493.885Z" fill="#131313"/>
<path d="M578.8 2H675V52H578.8V2Z" fill="#55FFC2" stroke="#404040" stroke-width="4" stroke-miterlimit="10" stroke-linecap="round" stroke-linejoin="round"/>
<path d="M609.616 22.66V23.776H606.076V26.236H608.836V27.352H606.076V31H604.708V22.66H609.616ZM616.944 27.532C616.944 27.78 616.928 28.004 616.896 28.204H611.844C611.884 28.732 612.08 29.156 612.432 29.476C612.784 29.796 613.216 29.956 613.728 29.956C614.464 29.956 614.984 29.648 615.288 29.032H616.764C616.564 29.64 616.2 30.14 615.672 30.532C615.152 30.916 614.504 31.108 613.728 31.108C613.096 31.108 612.528 30.968 612.024 30.688C611.528 30.4 611.136 30 610.848 29.488C610.568 28.968 610.428 28.368 610.428 27.688C610.428 27.008 610.564 26.412 610.836 25.9C611.116 25.38 611.504 24.98 612 24.7C612.504 24.42 613.08 24.28 613.728 24.28C614.352 24.28 614.908 24.416 615.396 24.688C615.884 24.96 616.264 25.344 616.536 25.84C616.808 26.328 616.944 26.892 616.944 27.532ZM615.516 27.1C615.508 26.596 615.328 26.192 614.976 25.888C614.624 25.584 614.188 25.432 613.668 25.432C613.196 25.432 612.792 25.584 612.456 25.888C612.12 26.184 611.92 26.588 611.856 27.1H615.516ZM617.834 27.664C617.834 27 617.97 26.412 618.242 25.9C618.522 25.388 618.898 24.992 619.37 24.712C619.85 24.424 620.378 24.28 620.954 24.28C621.474 24.28 621.926 24.384 622.31 24.592C622.702 24.792 623.014 25.044 623.246 25.348V24.388H624.626V31H623.246V30.016C623.014 30.328 622.698 30.588 622.298 30.796C621.898 31.004 621.442 31.108 620.93 31.108C620.362 31.108 619.842 30.964 619.37 30.676C618.898 30.38 618.522 29.972 618.242 29.452C617.97 28.924 617.834 28.328 617.834 27.664ZM623.246 27.688C623.246 27.232 623.15 26.836 622.958 26.5C622.774 26.164 622.53 25.908 622.226 25.732C621.922 25.556 621.594 25.468 621.242 25.468C620.89 25.468 620.562 25.556 620.258 25.732C619.954 25.9 619.706 26.152 619.514 26.488C619.33 26.816 619.238 27.208 619.238 27.664C619.238 28.12 619.33 28.52 619.514 28.864C619.706 29.208 619.954 29.472 620.258 29.656C620.57 29.832 620.898 29.92 621.242 29.92C621.594 29.92 621.922 29.832 622.226 29.656C622.53 29.48 622.774 29.224 622.958 28.888C623.15 28.544 623.246 28.144 623.246 27.688ZM628.019 25.504V29.164C628.019 29.412 628.075 29.592 628.187 29.704C628.307 29.808 628.507 29.86 628.787 29.86H629.627V31H628.547C627.931 31 627.459 30.856 627.131 30.568C626.803 30.28 626.639 29.812 626.639 29.164V25.504H625.859V24.388H626.639V22.744H628.019V24.388H629.627V25.504H628.019ZM636.875 24.388V31H635.507V30.22C635.291 30.492 635.007 30.708 634.655 30.868C634.311 31.02 633.943 31.096 633.551 31.096C633.031 31.096 632.563 30.988 632.147 30.772C631.739 30.556 631.415 30.236 631.175 29.812C630.943 29.388 630.827 28.876 630.827 28.276V24.388H632.183V28.072C632.183 28.664 632.331 29.12 632.627 29.44C632.923 29.752 633.327 29.908 633.839 29.908C634.351 29.908 634.755 29.752 635.051 29.44C635.355 29.12 635.507 28.664 635.507 28.072V24.388H636.875ZM640.048 25.348C640.248 25.012 640.512 24.752 640.84 24.568C641.176 24.376 641.572 24.28 642.028 24.28V25.696H641.68C641.144 25.696 640.736 25.832 640.456 26.104C640.184 26.376 640.048 26.848 640.048 27.52V31H638.68V24.388H640.048V25.348ZM649.346 27.532C649.346 27.78 649.33 28.004 649.298 28.204H644.246C644.286 28.732 644.482 29.156 644.834 29.476C645.186 29.796 645.618 29.956 646.13 29.956C646.866 29.956 647.386 29.648 647.69 29.032H649.166C648.966 29.64 648.602 30.14 648.074 30.532C647.554 30.916 646.906 31.108 646.13 31.108C645.498 31.108 644.93 30.968 644.426 30.688C643.93 30.4 643.538 30 643.25 29.488C642.97 28.968 642.83 28.368 642.83 27.688C642.83 27.008 642.966 26.412 643.238 25.9C643.518 25.38 643.906 24.98 644.402 24.7C644.906 24.42 645.482 24.28 646.13 24.28C646.754 24.28 647.31 24.416 647.798 24.688C648.286 24.96 648.666 25.344 648.938 25.84C649.21 26.328 649.346 26.892 649.346 27.532ZM647.918 27.1C647.91 26.596 647.73 26.192 647.378 25.888C647.026 25.584 646.59 25.432 646.07 25.432C645.598 25.432 645.194 25.584 644.858 25.888C644.522 26.184 644.322 26.588 644.258 27.1H647.918Z" fill="#131313"/>
<path d="M723 2H819.2V52H723V2Z" fill="#55FFC2" stroke="#404040" stroke-width="4" stroke-miterlimit="10" stroke-linecap="round" stroke-linejoin="round"/>
<path d="M753.816 22.66V23.776H750.276V26.236H753.036V27.352H750.276V31H748.908V22.66H753.816ZM761.144 27.532C761.144 27.78 761.128 28.004 761.096 28.204H756.044C756.084 28.732 756.28 29.156 756.632 29.476C756.984 29.796 757.416 29.956 757.928 29.956C758.664 29.956 759.184 29.648 759.488 29.032H760.964C760.764 29.64 760.4 30.14 759.872 30.532C759.352 30.916 758.704 31.108 757.928 31.108C757.296 31.108 756.728 30.968 756.224 30.688C755.728 30.4 755.336 30 755.048 29.488C754.768 28.968 754.628 28.368 754.628 27.688C754.628 27.008 754.764 26.412 755.036 25.9C755.316 25.38 755.704 24.98 756.2 24.7C756.704 24.42 757.28 24.28 757.928 24.28C758.552 24.28 759.108 24.416 759.596 24.688C760.084 24.96 760.464 25.344 760.736 25.84C761.008 26.328 761.144 26.892 761.144 27.532ZM759.716 27.1C759.708 26.596 759.528 26.192 759.176 25.888C758.824 25.584 758.388 25.432 757.868 25.432C757.396 25.432 756.992 25.584 756.656 25.888C756.32 26.184 756.12 26.588 756.056 27.1H759.716ZM762.034 27.664C762.034 27 762.17 26.412 762.442 25.9C762.722 25.388 763.098 24.992 763.57 24.712C764.05 24.424 764.578 24.28 765.154 24.28C765.674 24.28 766.126 24.384 766.51 24.592C766.902 24.792 767.214 25.044 767.446 25.348V24.388H768.826V31H767.446V30.016C767.214 30.328 766.898 30.588 766.498 30.796C766.098 31.004 765.642 31.108 765.13 31.108C764.562 31.108 764.042 30.964 763.57 30.676C763.098 30.38 762.722 29.972 762.442 29.452C762.17 28.924 762.034 28.328 762.034 27.664ZM767.446 27.688C767.446 27.232 767.35 26.836 767.158 26.5C766.974 26.164 766.73 25.908 766.426 25.732C766.122 25.556 765.794 25.468 765.442 25.468C765.09 25.468 764.762 25.556 764.458 25.732C764.154 25.9 763.906 26.152 763.714 26.488C763.53 26.816 763.438 27.208 763.438 27.664C763.438 28.12 763.53 28.52 763.714 28.864C763.906 29.208 764.154 29.472 764.458 29.656C764.77 29.832 765.098 29.92 765.442 29.92C765.794 29.92 766.122 29.832 766.426 29.656C766.73 29.48 766.974 29.224 767.158 28.888C767.35 28.544 767.446 28.144 767.446 27.688ZM772.219 25.504V29.164C772.219 29.412 772.275 29.592 772.387 29.704C772.507 29.808 772.707 29.86 772.987 29.86H773.827V31H772.747C772.131 31 771.659 30.856 771.331 30.568C771.003 30.28 770.839 29.812 770.839 29.164V25.504H770.059V24.388H770.839V22.744H772.219V24.388H773.827V25.504H772.219ZM781.076 24.388V31H779.708V30.22C779.492 30.492 779.208 30.708 778.856 30.868C778.512 31.02 778.144 31.096 777.752 31.096C777.232 31.096 776.764 30.988 776.348 30.772C775.94 30.556 775.616 30.236 775.376 29.812C775.144 29.388 775.028 28.876 775.028 28.276V24.388H776.384V28.072C776.384 28.664 776.532 29.12 776.828 29.44C777.124 29.752 777.528 29.908 778.04 29.908C778.552 29.908 778.956 29.752 779.252 29.44C779.556 29.12 779.708 28.664 779.708 28.072V24.388H781.076ZM784.248 25.348C784.448 25.012 784.712 24.752 785.04 24.568C785.376 24.376 785.772 24.28 786.228 24.28V25.696H785.88C785.344 25.696 784.936 25.832 784.656 26.104C784.384 26.376 784.248 26.848 784.248 27.52V31H782.88V24.388H784.248V25.348ZM793.546 27.532C793.546 27.78 793.53 28.004 793.498 28.204H788.446C788.486 28.732 788.682 29.156 789.034 29.476C789.386 29.796 789.818 29.956 790.33 29.956C791.066 29.956 791.586 29.648 791.89 29.032H793.366C793.166 29.64 792.802 30.14 792.274 30.532C791.754 30.916 791.106 31.108 790.33 31.108C789.698 31.108 789.13 30.968 788.626 30.688C788.13 30.4 787.738 30 787.45 29.488C787.17 28.968 787.03 28.368 787.03 27.688C787.03 27.008 787.166 26.412 787.438 25.9C787.718 25.38 788.106 24.98 788.602 24.7C789.106 24.42 789.682 24.28 790.33 24.28C790.954 24.28 791.51 24.416 791.998 24.688C792.486 24.96 792.866 25.344 793.138 25.84C793.41 26.328 793.546 26.892 793.546 27.532ZM792.118 27.1C792.11 26.596 791.93 26.192 791.578 25.888C791.226 25.584 790.79 25.432 790.27 25.432C789.798 25.432 789.394 25.584 789.058 25.888C788.722 26.184 788.522 26.588 788.458 27.1H792.118Z" fill="#131313"/>
</svg>
